<svg width="363" height="259" viewBox="0 0 363 259" fill="none" xmlns="http://www.w3.org/2000/svg">
<path d="M257.565 134L243 134" stroke="white"/>
<path d="M85.5647 134H71" stroke="white"/>
<path d="M163.32 233.145L163.32 218.58" stroke="white"/>
<path d="M163.32 40.8904L163.32 26.3256" stroke="white"/>
<path d="M113.286 258V244H117.526C119.166 244 120.519 244.287 121.586 244.86C122.653 245.42 123.439 246.227 123.946 247.28C124.466 248.32 124.726 249.573 124.726 251.04C124.726 252.48 124.466 253.72 123.946 254.76C123.439 255.8 122.653 256.6 121.586 257.16C120.519 257.72 119.166 258 117.526 258H113.286ZM114.966 256.6H117.486C118.846 256.6 119.926 256.38 120.726 255.94C121.539 255.487 122.119 254.847 122.466 254.02C122.813 253.18 122.986 252.187 122.986 251.04C122.986 249.867 122.813 248.86 122.466 248.02C122.119 247.18 121.539 246.533 120.726 246.08C119.926 245.627 118.846 245.4 117.486 245.4H114.966V256.6ZM126.633 258V248.02H128.313V258H126.633ZM127.473 245.84C127.14 245.84 126.86 245.733 126.633 245.52C126.42 245.293 126.313 245.013 126.313 244.68C126.313 244.347 126.42 244.08 126.633 243.88C126.86 243.667 127.14 243.56 127.473 243.56C127.793 243.56 128.066 243.667 128.293 243.88C128.52 244.08 128.633 244.347 128.633 244.68C128.633 245.013 128.52 245.293 128.293 245.52C128.066 245.733 127.793 245.84 127.473 245.84ZM134.438 258.24C133.638 258.24 132.925 258.107 132.298 257.84C131.672 257.56 131.172 257.173 130.798 256.68C130.425 256.173 130.192 255.58 130.098 254.9H131.818C131.898 255.247 132.045 255.567 132.258 255.86C132.485 256.153 132.778 256.387 133.138 256.56C133.512 256.733 133.952 256.82 134.458 256.82C134.938 256.82 135.325 256.753 135.618 256.62C135.925 256.473 136.152 256.287 136.298 256.06C136.458 255.82 136.538 255.56 136.538 255.28C136.538 254.88 136.438 254.573 136.238 254.36C136.052 254.147 135.772 253.98 135.398 253.86C135.025 253.74 134.578 253.627 134.058 253.52C133.632 253.44 133.205 253.333 132.778 253.2C132.365 253.067 131.992 252.9 131.658 252.7C131.325 252.487 131.058 252.22 130.858 251.9C130.658 251.58 130.558 251.193 130.558 250.74C130.558 250.167 130.705 249.66 130.998 249.22C131.292 248.767 131.705 248.413 132.238 248.16C132.785 247.907 133.432 247.78 134.178 247.78C135.232 247.78 136.092 248.04 136.758 248.56C137.438 249.08 137.832 249.833 137.938 250.82H136.278C136.225 250.313 136.012 249.92 135.638 249.64C135.278 249.347 134.785 249.2 134.158 249.2C133.532 249.2 133.058 249.327 132.738 249.58C132.418 249.833 132.258 250.167 132.258 250.58C132.258 250.833 132.345 251.06 132.518 251.26C132.705 251.46 132.972 251.633 133.318 251.78C133.678 251.913 134.112 252.027 134.618 252.12C135.258 252.253 135.852 252.42 136.398 252.62C136.945 252.807 137.392 253.093 137.738 253.48C138.085 253.867 138.258 254.42 138.258 255.14C138.272 255.753 138.118 256.293 137.798 256.76C137.478 257.227 137.032 257.593 136.458 257.86C135.898 258.113 135.225 258.24 134.438 258.24ZM143.549 258C142.949 258 142.429 257.907 141.989 257.72C141.549 257.533 141.209 257.22 140.969 256.78C140.742 256.327 140.629 255.72 140.629 254.96V249.44H138.889V248.02H140.629L140.849 245.62H142.309V248.02H145.229V249.44H142.309V254.96C142.309 255.587 142.435 256.013 142.689 256.24C142.942 256.453 143.389 256.56 144.029 256.56H145.089V258H143.549ZM146.782 258V248.02H148.302L148.442 249.94C148.655 249.487 148.935 249.1 149.282 248.78C149.642 248.46 150.062 248.213 150.542 248.04C151.035 247.867 151.595 247.78 152.222 247.78V249.54H151.702C151.262 249.54 150.842 249.6 150.442 249.72C150.055 249.827 149.709 250.007 149.402 250.26C149.109 250.513 148.875 250.86 148.702 251.3C148.542 251.727 148.462 252.267 148.462 252.92V258H146.782ZM153.686 258V248.02H155.366V258H153.686ZM154.526 245.84C154.193 245.84 153.913 245.733 153.686 245.52C153.473 245.293 153.366 245.013 153.366 244.68C153.366 244.347 153.473 244.08 153.686 243.88C153.913 243.667 154.193 243.56 154.526 243.56C154.846 243.56 155.12 243.667 155.346 243.88C155.573 244.08 155.686 244.347 155.686 244.68C155.686 245.013 155.573 245.293 155.346 245.52C155.12 245.733 154.846 245.84 154.526 245.84ZM162.991 258.24C162.431 258.24 161.918 258.16 161.451 258C160.998 257.84 160.591 257.62 160.231 257.34C159.885 257.06 159.598 256.727 159.371 256.34L159.211 258H157.691V243.6H159.371V249.66C159.691 249.167 160.151 248.733 160.751 248.36C161.351 247.973 162.105 247.78 163.011 247.78C163.985 247.78 164.838 248.007 165.571 248.46C166.305 248.913 166.871 249.54 167.271 250.34C167.685 251.127 167.891 252.02 167.891 253.02C167.891 254.033 167.685 254.933 167.271 255.72C166.871 256.493 166.305 257.107 165.571 257.56C164.838 258.013 163.978 258.24 162.991 258.24ZM162.811 256.78C163.465 256.78 164.045 256.627 164.551 256.32C165.071 256 165.471 255.56 165.751 255C166.045 254.427 166.191 253.76 166.191 253C166.191 252.253 166.045 251.6 165.751 251.04C165.471 250.467 165.071 250.027 164.551 249.72C164.045 249.4 163.465 249.24 162.811 249.24C162.145 249.24 161.551 249.4 161.031 249.72C160.525 250.027 160.125 250.467 159.831 251.04C159.551 251.6 159.411 252.253 159.411 253C159.411 253.76 159.551 254.427 159.831 255C160.125 255.56 160.525 256 161.031 256.32C161.551 256.627 162.145 256.78 162.811 256.78ZM173.27 258.24C172.497 258.24 171.817 258.087 171.23 257.78C170.657 257.46 170.21 256.98 169.89 256.34C169.584 255.7 169.43 254.893 169.43 253.92V248.02H171.11V253.74C171.11 254.753 171.324 255.52 171.75 256.04C172.19 256.547 172.824 256.8 173.65 256.8C174.21 256.8 174.717 256.667 175.17 256.4C175.624 256.12 175.977 255.72 176.23 255.2C176.497 254.667 176.63 254.02 176.63 253.26V248.02H178.31V258H176.79L176.69 256.24C176.384 256.853 175.924 257.34 175.31 257.7C174.71 258.06 174.03 258.24 173.27 258.24ZM184.435 258C183.835 258 183.315 257.907 182.875 257.72C182.435 257.533 182.095 257.22 181.855 256.78C181.629 256.327 181.515 255.72 181.515 254.96V249.44H179.775V248.02H181.515L181.735 245.62H183.195V248.02H186.115V249.44H183.195V254.96C183.195 255.587 183.322 256.013 183.575 256.24C183.829 256.453 184.275 256.56 184.915 256.56H185.975V258H184.435ZM187.849 258V248.02H189.529V258H187.849ZM188.689 245.84C188.355 245.84 188.075 245.733 187.849 245.52C187.635 245.293 187.529 245.013 187.529 244.68C187.529 244.347 187.635 244.08 187.849 243.88C188.075 243.667 188.355 243.56 188.689 243.56C189.009 243.56 189.282 243.667 189.509 243.88C189.735 244.08 189.849 244.347 189.849 244.68C189.849 245.013 189.735 245.293 189.509 245.52C189.282 245.733 189.009 245.84 188.689 245.84ZM196.374 258.24C195.44 258.24 194.6 258.027 193.854 257.6C193.107 257.173 192.514 256.567 192.074 255.78C191.647 254.993 191.434 254.073 191.434 253.02C191.434 251.953 191.654 251.027 192.094 250.24C192.534 249.453 193.127 248.847 193.874 248.42C194.634 247.993 195.48 247.78 196.414 247.78C197.36 247.78 198.207 247.993 198.954 248.42C199.7 248.847 200.287 249.453 200.714 250.24C201.14 251.027 201.354 251.953 201.354 253.02C201.354 254.073 201.134 254.993 200.694 255.78C200.267 256.567 199.674 257.173 198.914 257.6C198.167 258.027 197.32 258.24 196.374 258.24ZM196.374 256.8C196.96 256.8 197.5 256.66 197.994 256.38C198.487 256.1 198.88 255.68 199.174 255.12C199.48 254.547 199.634 253.84 199.634 253C199.634 252.16 199.487 251.46 199.194 250.9C198.9 250.34 198.507 249.92 198.014 249.64C197.52 249.36 196.987 249.22 196.414 249.22C195.854 249.22 195.32 249.36 194.814 249.64C194.32 249.92 193.92 250.34 193.614 250.9C193.307 251.46 193.154 252.167 193.154 253.02C193.154 253.847 193.307 254.547 193.614 255.12C193.92 255.68 194.314 256.1 194.794 256.38C195.287 256.66 195.814 256.8 196.374 256.8ZM203.109 258V248.02H204.629L204.729 249.78C205.049 249.167 205.509 248.68 206.109 248.32C206.709 247.96 207.389 247.78 208.149 247.78C208.936 247.78 209.616 247.94 210.189 248.26C210.763 248.567 211.209 249.04 211.529 249.68C211.849 250.32 212.009 251.127 212.009 252.1V258H210.329V252.28C210.329 251.267 210.103 250.507 209.649 250C209.209 249.48 208.583 249.22 207.769 249.22C207.196 249.22 206.683 249.36 206.229 249.64C205.789 249.907 205.436 250.307 205.169 250.84C204.916 251.36 204.789 252 204.789 252.76V258H203.109Z" fill="white"/>
<path d="M9.6938 140.24C8.32047 140.24 7.1338 139.94 6.1338 139.34C5.14713 138.727 4.38047 137.88 3.8338 136.8C3.30047 135.707 3.0338 134.44 3.0338 133C3.0338 131.56 3.30047 130.3 3.8338 129.22C4.38047 128.127 5.14713 127.28 6.1338 126.68C7.1338 126.067 8.32047 125.76 9.6938 125.76C11.3071 125.76 12.6138 126.14 13.6138 126.9C14.6138 127.66 15.2538 128.733 15.5338 130.12H13.6738C13.4605 129.253 13.0271 128.56 12.3738 128.04C11.7205 127.507 10.8271 127.24 9.6938 127.24C8.6938 127.24 7.82047 127.473 7.0738 127.94C6.34047 128.393 5.76713 129.053 5.3538 129.92C4.9538 130.773 4.7538 131.8 4.7538 133C4.7538 134.2 4.9538 135.233 5.3538 136.1C5.76713 136.953 6.34047 137.613 7.0738 138.08C7.82047 138.533 8.6938 138.76 9.6938 138.76C10.8271 138.76 11.7205 138.507 12.3738 138C13.0271 137.48 13.4605 136.793 13.6738 135.94H15.5338C15.2538 137.287 14.6138 138.34 13.6138 139.1C12.6138 139.86 11.3071 140.24 9.6938 140.24ZM20.5488 140.24C19.7221 140.24 19.0355 140.1 18.4888 139.82C17.9555 139.54 17.5555 139.167 17.2888 138.7C17.0221 138.22 16.8888 137.707 16.8888 137.16C16.8888 136.48 17.0621 135.907 17.4088 135.44C17.7688 134.973 18.2688 134.613 18.9088 134.36C19.5488 134.107 20.3088 133.98 21.1888 133.98H23.8688C23.8688 133.367 23.7688 132.853 23.5688 132.44C23.3821 132.027 23.1021 131.72 22.7288 131.52C22.3555 131.307 21.9021 131.2 21.3688 131.2C20.7288 131.2 20.1688 131.367 19.6888 131.7C19.2088 132.02 18.9155 132.487 18.8088 133.1H17.0888C17.1688 132.38 17.4155 131.78 17.8288 131.3C18.2421 130.807 18.7621 130.433 19.3888 130.18C20.0155 129.913 20.6755 129.78 21.3688 129.78C22.2888 129.78 23.0555 129.953 23.6688 130.3C24.2955 130.633 24.7621 131.107 25.0688 131.72C25.3888 132.32 25.5488 133.027 25.5488 133.84V140H24.0488L23.9488 138.22C23.8155 138.5 23.6421 138.767 23.4288 139.02C23.2288 139.26 22.9888 139.473 22.7088 139.66C22.4421 139.833 22.1288 139.973 21.7688 140.08C21.4088 140.187 21.0021 140.24 20.5488 140.24ZM20.8088 138.82C21.2888 138.82 21.7155 138.727 22.0888 138.54C22.4755 138.34 22.8021 138.073 23.0688 137.74C23.3355 137.407 23.5355 137.033 23.6688 136.62C23.8021 136.207 23.8688 135.773 23.8688 135.32V135.28H21.3288C20.6755 135.28 20.1488 135.36 19.7488 135.52C19.3621 135.68 19.0821 135.893 18.9088 136.16C18.7355 136.427 18.6488 136.733 18.6488 137.08C18.6488 137.427 18.7288 137.733 18.8888 138C19.0488 138.267 19.2888 138.473 19.6088 138.62C19.9421 138.753 20.3421 138.82 20.8088 138.82ZM27.5082 144.4V130.02H29.0282L29.1882 131.66C29.4015 131.34 29.6748 131.04 30.0082 130.76C30.3415 130.467 30.7415 130.233 31.2082 130.06C31.6748 129.873 32.2148 129.78 32.8282 129.78C33.8015 129.78 34.6548 130.013 35.3882 130.48C36.1215 130.933 36.6882 131.553 37.0882 132.34C37.5015 133.127 37.7082 134.027 37.7082 135.04C37.7082 136.04 37.5015 136.933 37.0882 137.72C36.6882 138.507 36.1148 139.127 35.3682 139.58C34.6348 140.02 33.7815 140.24 32.8082 140.24C31.9948 140.24 31.2748 140.073 30.6482 139.74C30.0215 139.407 29.5348 138.94 29.1882 138.34V144.4H27.5082ZM32.6282 138.78C33.2815 138.78 33.8615 138.627 34.3682 138.32C34.8882 138 35.2882 137.56 35.5682 137C35.8615 136.427 36.0082 135.76 36.0082 135C36.0082 134.253 35.8615 133.6 35.5682 133.04C35.2882 132.467 34.8882 132.027 34.3682 131.72C33.8615 131.4 33.2815 131.24 32.6282 131.24C31.9615 131.24 31.3682 131.4 30.8482 131.72C30.3415 132.027 29.9415 132.467 29.6482 133.04C29.3682 133.6 29.2282 134.253 29.2282 135C29.2282 135.76 29.3682 136.427 29.6482 137C29.9415 137.56 30.3415 138 30.8482 138.32C31.3682 138.627 31.9615 138.78 32.6282 138.78ZM39.6272 140V130.02H41.3072V140H39.6272ZM40.4672 127.84C40.1339 127.84 39.8539 127.733 39.6272 127.52C39.4139 127.293 39.3072 127.013 39.3072 126.68C39.3072 126.347 39.4139 126.08 39.6272 125.88C39.8539 125.667 40.1339 125.56 40.4672 125.56C40.7872 125.56 41.0606 125.667 41.2872 125.88C41.5139 126.08 41.6272 126.347 41.6272 126.68C41.6272 127.013 41.5139 127.293 41.2872 127.52C41.0606 127.733 40.7872 127.84 40.4672 127.84ZM47.5724 140C46.9724 140 46.4524 139.907 46.0124 139.72C45.5724 139.533 45.2324 139.22 44.9924 138.78C44.7657 138.327 44.6524 137.72 44.6524 136.96V131.44H42.9124V130.02H44.6524L44.8724 127.62H46.3324V130.02H49.2524V131.44H46.3324V136.96C46.3324 137.587 46.4591 138.013 46.7124 138.24C46.9657 138.453 47.4124 138.56 48.0524 138.56H49.1124V140H47.5724ZM54.1058 140.24C53.2792 140.24 52.5925 140.1 52.0458 139.82C51.5125 139.54 51.1125 139.167 50.8458 138.7C50.5792 138.22 50.4458 137.707 50.4458 137.16C50.4458 136.48 50.6192 135.907 50.9658 135.44C51.3258 134.973 51.8258 134.613 52.4658 134.36C53.1058 134.107 53.8658 133.98 54.7458 133.98H57.4258C57.4258 133.367 57.3258 132.853 57.1258 132.44C56.9392 132.027 56.6592 131.72 56.2858 131.52C55.9125 131.307 55.4592 131.2 54.9258 131.2C54.2858 131.2 53.7258 131.367 53.2458 131.7C52.7658 132.02 52.4725 132.487 52.3658 133.1H50.6458C50.7258 132.38 50.9725 131.78 51.3858 131.3C51.7992 130.807 52.3192 130.433 52.9458 130.18C53.5725 129.913 54.2325 129.78 54.9258 129.78C55.8458 129.78 56.6125 129.953 57.2258 130.3C57.8525 130.633 58.3192 131.107 58.6258 131.72C58.9458 132.32 59.1058 133.027 59.1058 133.84V140H57.6058L57.5058 138.22C57.3725 138.5 57.1992 138.767 56.9858 139.02C56.7858 139.26 56.5458 139.473 56.2658 139.66C55.9992 139.833 55.6858 139.973 55.3258 140.08C54.9658 140.187 54.5592 140.24 54.1058 140.24ZM54.3658 138.82C54.8458 138.82 55.2725 138.727 55.6458 138.54C56.0325 138.34 56.3592 138.073 56.6258 137.74C56.8925 137.407 57.0925 137.033 57.2258 136.62C57.3592 136.207 57.4258 135.773 57.4258 135.32V135.28H54.8858C54.2325 135.28 53.7058 135.36 53.3058 135.52C52.9192 135.68 52.6392 135.893 52.4658 136.16C52.2925 136.427 52.2058 136.733 52.2058 137.08C52.2058 137.427 52.2858 137.733 52.4458 138C52.6058 138.267 52.8458 138.473 53.1658 138.62C53.4992 138.753 53.8992 138.82 54.3658 138.82ZM61.0652 140V125.6H62.7452V140H61.0652Z" fill="white"/>
<path d="M272.373 140.24C271 140.24 269.813 139.94 268.813 139.34C267.827 138.727 267.06 137.88 266.513 136.8C265.98 135.707 265.713 134.44 265.713 133C265.713 131.56 265.98 130.3 266.513 129.22C267.06 128.127 267.827 127.28 268.813 126.68C269.813 126.067 271 125.76 272.373 125.76C273.987 125.76 275.293 126.14 276.293 126.9C277.293 127.66 277.933 128.733 278.213 130.12H276.353C276.14 129.253 275.707 128.56 275.053 128.04C274.4 127.507 273.507 127.24 272.373 127.24C271.373 127.24 270.5 127.473 269.753 127.94C269.02 128.393 268.447 129.053 268.033 129.92C267.633 130.773 267.433 131.8 267.433 133C267.433 134.2 267.633 135.233 268.033 136.1C268.447 136.953 269.02 137.613 269.753 138.08C270.5 138.533 271.373 138.76 272.373 138.76C273.507 138.76 274.4 138.507 275.053 138C275.707 137.48 276.14 136.793 276.353 135.94H278.213C277.933 137.287 277.293 138.34 276.293 139.1C275.293 139.86 273.987 140.24 272.373 140.24ZM284.448 140.24C283.515 140.24 282.675 140.027 281.928 139.6C281.182 139.173 280.588 138.567 280.148 137.78C279.722 136.993 279.508 136.073 279.508 135.02C279.508 133.953 279.728 133.027 280.168 132.24C280.608 131.453 281.202 130.847 281.948 130.42C282.708 129.993 283.555 129.78 284.488 129.78C285.435 129.78 286.282 129.993 287.028 130.42C287.775 130.847 288.362 131.453 288.788 132.24C289.215 133.027 289.428 133.953 289.428 135.02C289.428 136.073 289.208 136.993 288.768 137.78C288.342 138.567 287.748 139.173 286.988 139.6C286.242 140.027 285.395 140.24 284.448 140.24ZM284.448 138.8C285.035 138.8 285.575 138.66 286.068 138.38C286.562 138.1 286.955 137.68 287.248 137.12C287.555 136.547 287.708 135.84 287.708 135C287.708 134.16 287.562 133.46 287.268 132.9C286.975 132.34 286.582 131.92 286.088 131.64C285.595 131.36 285.062 131.22 284.488 131.22C283.928 131.22 283.395 131.36 282.888 131.64C282.395 131.92 281.995 132.34 281.688 132.9C281.382 133.46 281.228 134.167 281.228 135.02C281.228 135.847 281.382 136.547 281.688 137.12C281.995 137.68 282.388 138.1 282.868 138.38C283.362 138.66 283.888 138.8 284.448 138.8ZM291.184 140V130.02H292.704L292.824 131.46C293.144 130.927 293.57 130.513 294.104 130.22C294.637 129.927 295.237 129.78 295.904 129.78C296.424 129.78 296.89 129.853 297.304 130C297.73 130.133 298.104 130.347 298.424 130.64C298.757 130.92 299.024 131.28 299.224 131.72C299.57 131.107 300.05 130.633 300.664 130.3C301.277 129.953 301.924 129.78 302.604 129.78C303.39 129.78 304.077 129.94 304.664 130.26C305.25 130.567 305.697 131.04 306.004 131.68C306.324 132.32 306.484 133.133 306.484 134.12V140H304.824V134.3C304.824 133.273 304.617 132.507 304.204 132C303.79 131.48 303.204 131.22 302.444 131.22C301.91 131.22 301.437 131.36 301.024 131.64C300.61 131.92 300.284 132.32 300.044 132.84C299.804 133.36 299.684 134.007 299.684 134.78V140H298.004V134.3C298.004 133.273 297.797 132.507 297.384 132C296.97 131.48 296.377 131.22 295.604 131.22C295.097 131.22 294.63 131.36 294.204 131.64C293.79 131.92 293.464 132.32 293.224 132.84C292.984 133.36 292.864 134.007 292.864 134.78V140H291.184ZM308.435 144.4V130.02H309.955L310.115 131.66C310.329 131.34 310.602 131.04 310.935 130.76C311.269 130.467 311.669 130.233 312.135 130.06C312.602 129.873 313.142 129.78 313.755 129.78C314.729 129.78 315.582 130.013 316.315 130.48C317.049 130.933 317.615 131.553 318.015 132.34C318.429 133.127 318.635 134.027 318.635 135.04C318.635 136.04 318.429 136.933 318.015 137.72C317.615 138.507 317.042 139.127 316.295 139.58C315.562 140.02 314.709 140.24 313.735 140.24C312.922 140.24 312.202 140.073 311.575 139.74C310.949 139.407 310.462 138.94 310.115 138.34V144.4H308.435ZM313.555 138.78C314.209 138.78 314.789 138.627 315.295 138.32C315.815 138 316.215 137.56 316.495 137C316.789 136.427 316.935 135.76 316.935 135C316.935 134.253 316.789 133.6 316.495 133.04C316.215 132.467 315.815 132.027 315.295 131.72C314.789 131.4 314.209 131.24 313.555 131.24C312.889 131.24 312.295 131.4 311.775 131.72C311.269 132.027 310.869 132.467 310.575 133.04C310.295 133.6 310.155 134.253 310.155 135C310.155 135.76 310.295 136.427 310.575 137C310.869 137.56 311.269 138 311.775 138.32C312.295 138.627 312.889 138.78 313.555 138.78ZM324.014 140.24C323.241 140.24 322.561 140.087 321.974 139.78C321.401 139.46 320.954 138.98 320.634 138.34C320.328 137.7 320.174 136.893 320.174 135.92V130.02H321.854V135.74C321.854 136.753 322.068 137.52 322.494 138.04C322.934 138.547 323.568 138.8 324.394 138.8C324.954 138.8 325.461 138.667 325.914 138.4C326.368 138.12 326.721 137.72 326.974 137.2C327.241 136.667 327.374 136.02 327.374 135.26V130.02H329.054V140H327.534L327.434 138.24C327.128 138.853 326.668 139.34 326.054 139.7C325.454 140.06 324.774 140.24 324.014 140.24ZM335.179 140C334.579 140 334.059 139.907 333.619 139.72C333.179 139.533 332.839 139.22 332.599 138.78C332.372 138.327 332.259 137.72 332.259 136.96V131.44H330.519V130.02H332.259L332.479 127.62H333.939V130.02H336.859V131.44H333.939V136.96C333.939 137.587 334.066 138.013 334.319 138.24C334.572 138.453 335.019 138.56 335.659 138.56H336.719V140H335.179ZM342.599 140.24C341.652 140.24 340.812 140.027 340.079 139.6C339.346 139.16 338.766 138.547 338.339 137.76C337.926 136.973 337.719 136.053 337.719 135C337.719 133.947 337.926 133.033 338.339 132.26C338.752 131.473 339.326 130.867 340.059 130.44C340.806 130 341.666 129.78 342.639 129.78C343.612 129.78 344.446 130 345.139 130.44C345.832 130.867 346.359 131.433 346.719 132.14C347.092 132.847 347.279 133.62 347.279 134.46C347.279 134.593 347.279 134.733 347.279 134.88C347.279 135.027 347.272 135.193 347.259 135.38H338.979V134.08H345.619C345.592 133.173 345.292 132.467 344.719 131.96C344.159 131.453 343.452 131.2 342.599 131.2C342.026 131.2 341.492 131.327 340.999 131.58C340.506 131.833 340.106 132.207 339.799 132.7C339.506 133.193 339.359 133.807 339.359 134.54V135.1C339.359 135.927 339.512 136.62 339.819 137.18C340.126 137.727 340.526 138.14 341.019 138.42C341.512 138.687 342.039 138.82 342.599 138.82C343.292 138.82 343.866 138.667 344.319 138.36C344.786 138.04 345.126 137.607 345.339 137.06H346.999C346.826 137.66 346.539 138.2 346.139 138.68C345.752 139.16 345.259 139.54 344.659 139.82C344.072 140.1 343.386 140.24 342.599 140.24Z" fill="white"/>
<path d="M174.426 55.7203V68.7798L163.114 75.3111L151.803 68.7798V55.7203L163.114 49.189L174.426 55.7203Z" fill="#00FF85" stroke="black" stroke-width="0.5"/>
<path d="M151.768 55.5756L163.173 62.6005" stroke="black" stroke-width="0.5"/>
<path d="M163.056 62.6005L174.462 55.5756" stroke="black" stroke-width="0.5"/>
<path d="M163.115 75.4518L163.115 62.4727" stroke="black" stroke-width="0.5"/>
<path d="M232.272 89.0935V102.153L220.961 108.684L209.65 102.153V89.0935L220.961 82.5623L232.272 89.0935Z" fill="#00FF85" stroke="black" stroke-width="0.5"/>
<path d="M209.615 88.9489L221.02 95.9738" stroke="black" stroke-width="0.5"/>
<path d="M220.903 95.9737L232.308 88.9488" stroke="black" stroke-width="0.5"/>
<path d="M220.962 108.825L220.962 95.846" stroke="black" stroke-width="0.5"/>
<path d="M203.349 105.558V118.617L192.037 125.149L180.727 118.617V105.558L192.037 99.0265L203.349 105.558Z" fill="white" stroke="black" stroke-width="0.5"/>
<path d="M180.691 105.413L192.096 112.438" stroke="black" stroke-width="0.5"/>
<path d="M191.979 112.438L203.385 105.413" stroke="black" stroke-width="0.5"/>
<path d="M192.038 125.289L192.038 112.31" stroke="black" stroke-width="0.5"/>
<path d="M232.272 155.84V168.9L220.961 175.431L209.65 168.9V155.84L220.961 149.309L232.272 155.84Z" fill="#00FF85" stroke="black" stroke-width="0.5"/>
<path d="M209.615 155.695L221.02 162.72" stroke="black" stroke-width="0.5"/>
<path d="M220.903 162.72L232.308 155.695" stroke="black" stroke-width="0.5"/>
<path d="M220.962 175.572L220.962 162.593" stroke="black" stroke-width="0.5"/>
<path d="M203.349 172.304V185.364L192.037 191.895L180.727 185.364V172.304L192.037 165.773L203.349 172.304Z" fill="white" stroke="black" stroke-width="0.5"/>
<path d="M180.691 172.16L192.096 179.184" stroke="black" stroke-width="0.5"/>
<path d="M191.979 179.184L203.385 172.159" stroke="black" stroke-width="0.5"/>
<path d="M192.038 192.036L192.038 179.057" stroke="black" stroke-width="0.5"/>
<path d="M174.426 189.213V202.273L163.114 208.804L151.803 202.273V189.213L163.114 182.682L174.426 189.213Z" fill="#00FF85" stroke="black" stroke-width="0.5"/>
<path d="M151.768 189.069L163.173 196.094" stroke="black" stroke-width="0.5"/>
<path d="M163.056 196.093L174.462 189.069" stroke="black" stroke-width="0.5"/>
<path d="M163.115 208.945L163.115 195.966" stroke="black" stroke-width="0.5"/>
<path d="M116.578 156.285V169.345L105.267 175.876L93.9563 169.345V156.285L105.267 149.754L116.578 156.285Z" fill="#00FF85" stroke="black" stroke-width="0.5"/>
<path d="M93.9207 156.14L105.326 163.165" stroke="black" stroke-width="0.5"/>
<path d="M105.209 163.165L116.614 156.14" stroke="black" stroke-width="0.5"/>
<path d="M105.268 176.017L105.268 163.038" stroke="black" stroke-width="0.5"/>
<path d="M145.502 172.749V185.809L134.19 192.34L122.88 185.809V172.749L134.19 166.218L145.502 172.749Z" fill="white" stroke="black" stroke-width="0.5"/>
<path d="M122.844 172.605L134.249 179.63" stroke="black" stroke-width="0.5"/>
<path d="M134.133 179.629L145.538 172.604" stroke="black" stroke-width="0.5"/>
<path d="M134.191 192.481L134.191 179.502" stroke="black" stroke-width="0.5"/>
<path d="M174.426 155.84V168.9L163.114 175.431L151.803 168.9V155.84L163.114 149.309L174.426 155.84Z" fill="white" stroke="black" stroke-width="0.5"/>
<path d="M151.768 155.695L163.173 162.72" stroke="black" stroke-width="0.5"/>
<path d="M163.056 162.72L174.462 155.695" stroke="black" stroke-width="0.5"/>
<path d="M163.115 175.572L163.115 162.593" stroke="black" stroke-width="0.5"/>
<path d="M116.578 122.467V135.526L105.267 142.058L93.9563 135.526V122.467L105.267 115.936L116.578 122.467Z" fill="white" stroke="black" stroke-width="0.5"/>
<path d="M93.9207 122.322L105.326 129.347" stroke="black" stroke-width="0.5"/>
<path d="M105.209 129.347L116.614 122.322" stroke="black" stroke-width="0.5"/>
<path d="M105.268 142.198L105.268 129.219" stroke="black" stroke-width="0.5"/>
<path d="M145.502 138.931V151.99L134.19 158.522L122.88 151.99V138.931L134.19 132.4L145.502 138.931Z" fill="#00FF85" stroke="black" stroke-width="0.5"/>
<path d="M122.844 138.786L134.249 145.811" stroke="black" stroke-width="0.5"/>
<path d="M134.133 145.811L145.538 138.786" stroke="black" stroke-width="0.5"/>
<path d="M134.191 158.663L134.191 145.684" stroke="black" stroke-width="0.5"/>
<path d="M232.272 122.467V135.526L220.961 142.058L209.65 135.526V122.467L220.961 115.936L232.272 122.467Z" fill="white" stroke="black" stroke-width="0.5"/>
<path d="M209.615 122.322L221.02 129.347" stroke="black" stroke-width="0.5"/>
<path d="M220.903 129.347L232.308 122.322" stroke="black" stroke-width="0.5"/>
<path d="M220.962 142.198L220.962 129.219" stroke="black" stroke-width="0.5"/>
<path d="M203.349 138.931V151.99L192.037 158.522L180.727 151.99V138.931L192.037 132.4L203.349 138.931Z" fill="#00FF85" stroke="black" stroke-width="0.5"/>
<path d="M180.691 138.786L192.096 145.811" stroke="black" stroke-width="0.5"/>
<path d="M191.979 145.811L203.385 138.786" stroke="black" stroke-width="0.5"/>
<path d="M192.038 158.663L192.038 145.684" stroke="black" stroke-width="0.5"/>
<path d="M174.426 89.5385V102.598L163.114 109.129L151.803 102.598V89.5385L163.114 83.0073L174.426 89.5385Z" fill="#00FF85" stroke="black" stroke-width="0.5"/>
<path d="M151.768 89.3938L163.173 96.4187" stroke="black" stroke-width="0.5"/>
<path d="M163.056 96.4188L174.462 89.3939" stroke="black" stroke-width="0.5"/>
<path d="M163.115 109.27L163.115 96.291" stroke="black" stroke-width="0.5"/>
<path d="M145.502 72.6294V85.689L134.19 92.2202L122.88 85.689V72.6294L134.19 66.0981L145.502 72.6294Z" fill="white" stroke="black" stroke-width="0.5"/>
<path d="M122.844 72.4847L134.249 79.5096" stroke="black" stroke-width="0.5"/>
<path d="M134.133 79.5095L145.538 72.4846" stroke="black" stroke-width="0.5"/>
<path d="M134.191 92.3609L134.191 79.3818" stroke="black" stroke-width="0.5"/>
<path d="M203.349 72.6294V85.689L192.037 92.2202L180.727 85.689V72.6294L192.037 66.0981L203.349 72.6294Z" fill="white" stroke="black" stroke-width="0.5"/>
<path d="M180.691 72.4847L192.096 79.5096" stroke="black" stroke-width="0.5"/>
<path d="M191.979 79.5095L203.385 72.4846" stroke="black" stroke-width="0.5"/>
<path d="M192.038 92.3609L192.038 79.3818" stroke="black" stroke-width="0.5"/>
<path d="M116.578 89.0935V102.153L105.267 108.684L93.9563 102.153V89.0935L105.267 82.5623L116.578 89.0935Z" fill="#00FF85" stroke="black" stroke-width="0.5"/>
<path d="M93.9207 88.9489L105.326 95.9738" stroke="black" stroke-width="0.5"/>
<path d="M105.209 95.9738L116.614 88.9489" stroke="black" stroke-width="0.5"/>
<path d="M105.268 108.825L105.268 95.846" stroke="black" stroke-width="0.5"/>
<path d="M145.502 105.558V118.617L134.19 125.149L122.88 118.617V105.558L134.19 99.0265L145.502 105.558Z" fill="white" stroke="black" stroke-width="0.5"/>
<path d="M122.844 105.413L134.249 112.438" stroke="black" stroke-width="0.5"/>
<path d="M134.133 112.438L145.538 105.413" stroke="black" stroke-width="0.5"/>
<path d="M134.191 125.289L134.191 112.31" stroke="black" stroke-width="0.5"/>
<g clip-path="url(#clip0_2013_352)">
<path d="M178.379 127.348L179.706 124.513L167.472 129.623C166.951 129.84 166.496 130.186 166.149 130.626L163.257 134.298L160.365 130.626C160.018 130.186 159.562 129.841 159.042 129.623L146.808 124.513L148.135 127.348L158.049 131.489V132.55L148.752 128.667L150.079 131.502L158.049 134.83V135.891L150.697 132.82L152.024 135.655L158.049 138.172L160.382 139.146V134.459L163.257 138.109L166.133 134.459V139.147L168.466 138.172L174.49 135.656L175.818 132.821L168.466 135.892V134.83L176.435 131.502L177.762 128.667L168.465 132.55V131.489L178.379 127.348Z" fill="#00FF85"/>
</g>
<path d="M132.946 17L138.106 3H139.886L145.026 17H143.246L138.986 5.1L134.706 17H132.946ZM135.306 13.4L135.786 12.04H142.126L142.606 13.4H135.306ZM150.367 21.64C149.473 21.64 148.673 21.52 147.967 21.28C147.273 21.0533 146.733 20.7 146.347 20.22C145.96 19.74 145.767 19.1467 145.767 18.44C145.767 18.1467 145.827 17.8267 145.947 17.48C146.08 17.1333 146.3 16.7933 146.607 16.46C146.927 16.1267 147.373 15.8267 147.947 15.56L149.087 16.24C148.407 16.5333 147.953 16.8667 147.727 17.24C147.513 17.6267 147.407 17.9733 147.407 18.28C147.407 18.72 147.533 19.0867 147.787 19.38C148.04 19.6733 148.393 19.8933 148.847 20.04C149.3 20.1867 149.807 20.26 150.367 20.26C150.927 20.26 151.413 20.1733 151.827 20C152.24 19.84 152.56 19.6133 152.787 19.32C153.013 19.0267 153.127 18.68 153.127 18.28C153.127 17.84 152.953 17.46 152.607 17.14C152.273 16.8333 151.627 16.6533 150.667 16.6C149.88 16.5467 149.22 16.4733 148.687 16.38C148.153 16.2867 147.713 16.18 147.367 16.06C147.02 15.9267 146.727 15.78 146.487 15.62C146.26 15.46 146.053 15.2933 145.867 15.12V14.66L147.827 12.74L149.247 13.26L147.267 15.06L147.527 14.38C147.673 14.4867 147.813 14.5867 147.947 14.68C148.08 14.76 148.26 14.8333 148.487 14.9C148.713 14.9667 149.027 15.0267 149.427 15.08C149.84 15.1333 150.38 15.1867 151.047 15.24C151.94 15.3067 152.66 15.4667 153.207 15.72C153.767 15.9733 154.167 16.3133 154.407 16.74C154.66 17.1667 154.787 17.66 154.787 18.22C154.787 18.7933 154.627 19.34 154.307 19.86C154 20.38 153.52 20.8067 152.867 21.14C152.227 21.4733 151.393 21.64 150.367 21.64ZM150.347 13.86C149.507 13.86 148.793 13.7067 148.207 13.4C147.62 13.08 147.173 12.6533 146.867 12.12C146.56 11.5733 146.407 10.9733 146.407 10.32C146.407 9.66667 146.56 9.07333 146.867 8.54C147.173 8.00667 147.62 7.58 148.207 7.26C148.793 6.94 149.507 6.78 150.347 6.78C151.187 6.78 151.9 6.94 152.487 7.26C153.073 7.58 153.52 8.00667 153.827 8.54C154.133 9.07333 154.287 9.66667 154.287 10.32C154.287 10.9733 154.133 11.5733 153.827 12.12C153.52 12.6533 153.073 13.08 152.487 13.4C151.9 13.7067 151.187 13.86 150.347 13.86ZM150.347 12.48C151.053 12.48 151.613 12.3 152.027 11.94C152.453 11.5667 152.667 11.0267 152.667 10.32C152.667 9.62667 152.453 9.1 152.027 8.74C151.613 8.36667 151.053 8.18 150.347 8.18C149.64 8.18 149.073 8.36667 148.647 8.74C148.22 9.1 148.007 9.62667 148.007 10.32C148.007 11.0267 148.22 11.5667 148.647 11.94C149.073 12.3 149.64 12.48 150.347 12.48ZM151.967 8.44L151.467 7.02H155.587V8.28L151.967 8.44ZM160.95 17.24C160.004 17.24 159.164 17.0267 158.43 16.6C157.697 16.16 157.117 15.5467 156.69 14.76C156.277 13.9733 156.07 13.0533 156.07 12C156.07 10.9467 156.277 10.0333 156.69 9.26C157.104 8.47333 157.677 7.86667 158.41 7.44C159.157 7 160.017 6.78 160.99 6.78C161.964 6.78 162.797 7 163.49 7.44C164.184 7.86667 164.71 8.43333 165.07 9.14C165.444 9.84667 165.63 10.62 165.63 11.46C165.63 11.5933 165.63 11.7333 165.63 11.88C165.63 12.0267 165.624 12.1933 165.61 12.38H157.33V11.08H163.97C163.944 10.1733 163.644 9.46667 163.07 8.96C162.51 8.45333 161.804 8.2 160.95 8.2C160.377 8.2 159.844 8.32667 159.35 8.58C158.857 8.83333 158.457 9.20667 158.15 9.7C157.857 10.1933 157.71 10.8067 157.71 11.54V12.1C157.71 12.9267 157.864 13.62 158.17 14.18C158.477 14.7267 158.877 15.14 159.37 15.42C159.864 15.6867 160.39 15.82 160.95 15.82C161.644 15.82 162.217 15.6667 162.67 15.36C163.137 15.04 163.477 14.6067 163.69 14.06H165.35C165.177 14.66 164.89 15.2 164.49 15.68C164.104 16.16 163.61 16.54 163.01 16.82C162.424 17.1 161.737 17.24 160.95 17.24ZM167.277 17V7.02H168.797L168.897 8.78C169.217 8.16667 169.677 7.68 170.277 7.32C170.877 6.96 171.557 6.78 172.317 6.78C173.104 6.78 173.784 6.94 174.357 7.26C174.93 7.56667 175.377 8.04 175.697 8.68C176.017 9.32 176.177 10.1267 176.177 11.1V17H174.497V11.28C174.497 10.2667 174.27 9.50667 173.817 9C173.377 8.48 172.75 8.22 171.937 8.22C171.364 8.22 170.85 8.36 170.397 8.64C169.957 8.90667 169.604 9.30667 169.337 9.84C169.084 10.36 168.957 11 168.957 11.76V17H167.277ZM182.082 17C181.482 17 180.962 16.9067 180.522 16.72C180.082 16.5333 179.742 16.22 179.502 15.78C179.275 15.3267 179.162 14.72 179.162 13.96V8.44H177.422V7.02H179.162L179.382 4.62H180.842V7.02H183.762V8.44H180.842V13.96C180.842 14.5867 180.969 15.0133 181.222 15.24C181.475 15.4533 181.922 15.56 182.562 15.56H183.622V17H182.082ZM189.115 17.24C188.315 17.24 187.602 17.1067 186.975 16.84C186.349 16.56 185.849 16.1733 185.475 15.68C185.102 15.1733 184.869 14.58 184.775 13.9H186.495C186.575 14.2467 186.722 14.5667 186.935 14.86C187.162 15.1533 187.455 15.3867 187.815 15.56C188.189 15.7333 188.629 15.82 189.135 15.82C189.615 15.82 190.002 15.7533 190.295 15.62C190.602 15.4733 190.829 15.2867 190.975 15.06C191.135 14.82 191.215 14.56 191.215 14.28C191.215 13.88 191.115 13.5733 190.915 13.36C190.729 13.1467 190.449 12.98 190.075 12.86C189.702 12.74 189.255 12.6267 188.735 12.52C188.309 12.44 187.882 12.3333 187.455 12.2C187.042 12.0667 186.669 11.9 186.335 11.7C186.002 11.4867 185.735 11.22 185.535 10.9C185.335 10.58 185.235 10.1933 185.235 9.74C185.235 9.16667 185.382 8.66 185.675 8.22C185.969 7.76667 186.382 7.41333 186.915 7.16C187.462 6.90667 188.109 6.78 188.855 6.78C189.909 6.78 190.769 7.04 191.435 7.56C192.115 8.08 192.509 8.83333 192.615 9.82H190.955C190.902 9.31333 190.689 8.92 190.315 8.64C189.955 8.34667 189.462 8.2 188.835 8.2C188.209 8.2 187.735 8.32667 187.415 8.58C187.095 8.83333 186.935 9.16667 186.935 9.58C186.935 9.83333 187.022 10.06 187.195 10.26C187.382 10.46 187.649 10.6333 187.995 10.78C188.355 10.9133 188.789 11.0267 189.295 11.12C189.935 11.2533 190.529 11.42 191.075 11.62C191.622 11.8067 192.069 12.0933 192.415 12.48C192.762 12.8667 192.935 13.42 192.935 14.14C192.949 14.7533 192.795 15.2933 192.475 15.76C192.155 16.2267 191.709 16.5933 191.135 16.86C190.575 17.1133 189.902 17.24 189.115 17.24Z" fill="white"/>
<defs>
<clipPath id="clip0_2013_352">
<rect width="32.9252" height="14.6334" fill="white" transform="translate(146.793 124.507)"/>
</clipPath>
</defs>
</svg>
