<svg width="350" height="253" viewBox="0 0 350 253" fill="none" xmlns="http://www.w3.org/2000/svg">
<path d="M220.653 17V3H222.613L227.613 12.78L232.593 3H234.573V17H232.893V6L228.253 15.02H226.993L222.333 6.02V17H220.653ZM241.368 17.24C240.434 17.24 239.594 17.0267 238.848 16.6C238.101 16.1733 237.508 15.5667 237.068 14.78C236.641 13.9933 236.428 13.0733 236.428 12.02C236.428 10.9533 236.648 10.0267 237.088 9.24C237.528 8.45333 238.121 7.84667 238.868 7.42C239.628 6.99333 240.474 6.78 241.408 6.78C242.354 6.78 243.201 6.99333 243.948 7.42C244.694 7.84667 245.281 8.45333 245.708 9.24C246.134 10.0267 246.348 10.9533 246.348 12.02C246.348 13.0733 246.128 13.9933 245.688 14.78C245.261 15.5667 244.668 16.1733 243.908 16.6C243.161 17.0267 242.314 17.24 241.368 17.24ZM241.368 15.8C241.954 15.8 242.494 15.66 242.988 15.38C243.481 15.1 243.874 14.68 244.168 14.12C244.474 13.5467 244.628 12.84 244.628 12C244.628 11.16 244.481 10.46 244.188 9.9C243.894 9.34 243.501 8.92 243.008 8.64C242.514 8.36 241.981 8.22 241.408 8.22C240.848 8.22 240.314 8.36 239.808 8.64C239.314 8.92 238.914 9.34 238.608 9.9C238.301 10.46 238.148 11.1667 238.148 12.02C238.148 12.8467 238.301 13.5467 238.608 14.12C238.914 14.68 239.308 15.1 239.788 15.38C240.281 15.66 240.808 15.8 241.368 15.8ZM248.103 17V7.02H249.623L249.763 8.94C249.977 8.48667 250.257 8.1 250.603 7.78C250.963 7.46 251.383 7.21333 251.863 7.04C252.357 6.86667 252.917 6.78 253.543 6.78V8.54H253.023C252.583 8.54 252.163 8.6 251.763 8.72C251.377 8.82667 251.03 9.00667 250.723 9.26C250.43 9.51333 250.197 9.86 250.023 10.3C249.863 10.7267 249.783 11.2667 249.783 11.92V17H248.103ZM254.827 21.4V7.02H256.347L256.507 8.66C256.721 8.34 256.994 8.04 257.327 7.76C257.661 7.46667 258.061 7.23333 258.527 7.06C258.994 6.87333 259.534 6.78 260.147 6.78C261.121 6.78 261.974 7.01333 262.707 7.48C263.441 7.93333 264.007 8.55333 264.407 9.34C264.821 10.1267 265.027 11.0267 265.027 12.04C265.027 13.04 264.821 13.9333 264.407 14.72C264.007 15.5067 263.434 16.1267 262.687 16.58C261.954 17.02 261.101 17.24 260.127 17.24C259.314 17.24 258.594 17.0733 257.967 16.74C257.341 16.4067 256.854 15.94 256.507 15.34V21.4H254.827ZM259.947 15.78C260.601 15.78 261.181 15.6267 261.687 15.32C262.207 15 262.607 14.56 262.887 14C263.181 13.4267 263.327 12.76 263.327 12C263.327 11.2533 263.181 10.6 262.887 10.04C262.607 9.46667 262.207 9.02667 261.687 8.72C261.181 8.4 260.601 8.24 259.947 8.24C259.281 8.24 258.687 8.4 258.167 8.72C257.661 9.02667 257.261 9.46667 256.967 10.04C256.687 10.6 256.547 11.2533 256.547 12C256.547 12.76 256.687 13.4267 256.967 14C257.261 14.56 257.661 15 258.167 15.32C258.687 15.6267 259.281 15.78 259.947 15.78ZM266.766 17V2.6H268.446V8.72C268.78 8.10667 269.246 7.63333 269.846 7.3C270.46 6.95333 271.133 6.78 271.866 6.78C272.626 6.78 273.293 6.94 273.866 7.26C274.44 7.56667 274.88 8.04 275.186 8.68C275.506 9.32 275.666 10.1333 275.666 11.12V17H274.006V11.3C274.006 10.2733 273.793 9.50667 273.366 9C272.94 8.48 272.32 8.22 271.506 8.22C270.933 8.22 270.413 8.36 269.946 8.64C269.48 8.92 269.113 9.32 268.846 9.84C268.58 10.36 268.446 11.0067 268.446 11.78V17H266.766ZM282.091 17.24C281.145 17.24 280.305 17.0267 279.571 16.6C278.838 16.16 278.258 15.5467 277.831 14.76C277.418 13.9733 277.211 13.0533 277.211 12C277.211 10.9467 277.418 10.0333 277.831 9.26C278.245 8.47333 278.818 7.86667 279.551 7.44C280.298 7 281.158 6.78 282.131 6.78C283.105 6.78 283.938 7 284.631 7.44C285.325 7.86667 285.851 8.43333 286.211 9.14C286.585 9.84667 286.771 10.62 286.771 11.46C286.771 11.5933 286.771 11.7333 286.771 11.88C286.771 12.0267 286.765 12.1933 286.751 12.38H278.471V11.08H285.111C285.085 10.1733 284.785 9.46667 284.211 8.96C283.651 8.45333 282.945 8.2 282.091 8.2C281.518 8.2 280.985 8.32667 280.491 8.58C279.998 8.83333 279.598 9.20667 279.291 9.7C278.998 10.1933 278.851 10.8067 278.851 11.54V12.1C278.851 12.9267 279.005 13.62 279.311 14.18C279.618 14.7267 280.018 15.14 280.511 15.42C281.005 15.6867 281.531 15.82 282.091 15.82C282.785 15.82 283.358 15.6667 283.811 15.36C284.278 15.04 284.618 14.6067 284.831 14.06H286.491C286.318 14.66 286.031 15.2 285.631 15.68C285.245 16.16 284.751 16.54 284.151 16.82C283.565 17.1 282.878 17.24 282.091 17.24ZM292.058 17.24C291.285 17.24 290.605 17.0867 290.018 16.78C289.445 16.46 288.998 15.98 288.678 15.34C288.371 14.7 288.218 13.8933 288.218 12.92V7.02H289.898V12.74C289.898 13.7533 290.111 14.52 290.538 15.04C290.978 15.5467 291.611 15.8 292.438 15.8C292.998 15.8 293.505 15.6667 293.958 15.4C294.411 15.12 294.765 14.72 295.018 14.2C295.285 13.6667 295.418 13.02 295.418 12.26V7.02H297.098V17H295.578L295.478 15.24C295.171 15.8533 294.711 16.34 294.098 16.7C293.498 17.06 292.818 17.24 292.058 17.24ZM303.083 17.24C302.283 17.24 301.57 17.1067 300.943 16.84C300.316 16.56 299.816 16.1733 299.443 15.68C299.07 15.1733 298.836 14.58 298.743 13.9H300.463C300.543 14.2467 300.69 14.5667 300.903 14.86C301.13 15.1533 301.423 15.3867 301.783 15.56C302.156 15.7333 302.596 15.82 303.103 15.82C303.583 15.82 303.97 15.7533 304.263 15.62C304.57 15.4733 304.796 15.2867 304.943 15.06C305.103 14.82 305.183 14.56 305.183 14.28C305.183 13.88 305.083 13.5733 304.883 13.36C304.696 13.1467 304.416 12.98 304.043 12.86C303.67 12.74 303.223 12.6267 302.703 12.52C302.276 12.44 301.85 12.3333 301.423 12.2C301.01 12.0667 300.636 11.9 300.303 11.7C299.97 11.4867 299.703 11.22 299.503 10.9C299.303 10.58 299.203 10.1933 299.203 9.74C299.203 9.16667 299.35 8.66 299.643 8.22C299.936 7.76667 300.35 7.41333 300.883 7.16C301.43 6.90667 302.076 6.78 302.823 6.78C303.876 6.78 304.736 7.04 305.403 7.56C306.083 8.08 306.476 8.83333 306.583 9.82H304.923C304.87 9.31333 304.656 8.92 304.283 8.64C303.923 8.34667 303.43 8.2 302.803 8.2C302.176 8.2 301.703 8.32667 301.383 8.58C301.063 8.83333 300.903 9.16667 300.903 9.58C300.903 9.83333 300.99 10.06 301.163 10.26C301.35 10.46 301.616 10.6333 301.963 10.78C302.323 10.9133 302.756 11.0267 303.263 11.12C303.903 11.2533 304.496 11.42 305.043 11.62C305.59 11.8067 306.036 12.0933 306.383 12.48C306.73 12.8667 306.903 13.42 306.903 14.14C306.916 14.7533 306.763 15.2933 306.443 15.76C306.123 16.2267 305.676 16.5933 305.103 16.86C304.543 17.1133 303.87 17.24 303.083 17.24ZM216.62 37V23H225.28V24.38H218.3V29.26H224.68V30.62H218.3V35.62H225.28V37H216.62ZM231.789 37.24C230.842 37.24 229.989 37.02 229.229 36.58C228.482 36.14 227.889 35.5333 227.449 34.76C227.022 33.9733 226.809 33.06 226.809 32.02C226.809 30.9667 227.022 30.0533 227.449 29.28C227.889 28.4933 228.482 27.88 229.229 27.44C229.989 27 230.842 26.78 231.789 26.78C232.975 26.78 233.969 27.0867 234.769 27.7C235.569 28.3133 236.075 29.14 236.289 30.18H234.569C234.435 29.5533 234.109 29.0733 233.589 28.74C233.069 28.3933 232.462 28.22 231.769 28.22C231.209 28.22 230.682 28.36 230.189 28.64C229.695 28.92 229.295 29.3467 228.989 29.92C228.682 30.48 228.529 31.1733 228.529 32C228.529 32.6267 228.615 33.18 228.789 33.66C228.975 34.1267 229.215 34.5267 229.509 34.86C229.815 35.18 230.162 35.42 230.549 35.58C230.949 35.74 231.355 35.82 231.769 35.82C232.235 35.82 232.662 35.7467 233.049 35.6C233.435 35.44 233.762 35.2133 234.029 34.92C234.295 34.6133 234.475 34.2533 234.569 33.84H236.289C236.075 34.8533 235.569 35.6733 234.769 36.3C233.969 36.9267 232.975 37.24 231.789 37.24ZM242.574 37.24C241.641 37.24 240.801 37.0267 240.054 36.6C239.308 36.1733 238.714 35.5667 238.274 34.78C237.848 33.9933 237.634 33.0733 237.634 32.02C237.634 30.9533 237.854 30.0267 238.294 29.24C238.734 28.4533 239.328 27.8467 240.074 27.42C240.834 26.9933 241.681 26.78 242.614 26.78C243.561 26.78 244.408 26.9933 245.154 27.42C245.901 27.8467 246.488 28.4533 246.914 29.24C247.341 30.0267 247.554 30.9533 247.554 32.02C247.554 33.0733 247.334 33.9933 246.894 34.78C246.468 35.5667 245.874 36.1733 245.114 36.6C244.368 37.0267 243.521 37.24 242.574 37.24ZM242.574 35.8C243.161 35.8 243.701 35.66 244.194 35.38C244.688 35.1 245.081 34.68 245.374 34.12C245.681 33.5467 245.834 32.84 245.834 32C245.834 31.16 245.688 30.46 245.394 29.9C245.101 29.34 244.708 28.92 244.214 28.64C243.721 28.36 243.188 28.22 242.614 28.22C242.054 28.22 241.521 28.36 241.014 28.64C240.521 28.92 240.121 29.34 239.814 29.9C239.508 30.46 239.354 31.1667 239.354 32.02C239.354 32.8467 239.508 33.5467 239.814 34.12C240.121 34.68 240.514 35.1 240.994 35.38C241.488 35.66 242.014 35.8 242.574 35.8ZM253.11 37.24C252.31 37.24 251.597 37.1067 250.97 36.84C250.343 36.56 249.843 36.1733 249.47 35.68C249.097 35.1733 248.863 34.58 248.77 33.9H250.49C250.57 34.2467 250.717 34.5667 250.93 34.86C251.157 35.1533 251.45 35.3867 251.81 35.56C252.183 35.7333 252.623 35.82 253.13 35.82C253.61 35.82 253.997 35.7533 254.29 35.62C254.597 35.4733 254.823 35.2867 254.97 35.06C255.13 34.82 255.21 34.56 255.21 34.28C255.21 33.88 255.11 33.5733 254.91 33.36C254.723 33.1467 254.443 32.98 254.07 32.86C253.697 32.74 253.25 32.6267 252.73 32.52C252.303 32.44 251.877 32.3333 251.45 32.2C251.037 32.0667 250.663 31.9 250.33 31.7C249.997 31.4867 249.73 31.22 249.53 30.9C249.33 30.58 249.23 30.1933 249.23 29.74C249.23 29.1667 249.377 28.66 249.67 28.22C249.963 27.7667 250.377 27.4133 250.91 27.16C251.457 26.9067 252.103 26.78 252.85 26.78C253.903 26.78 254.763 27.04 255.43 27.56C256.11 28.08 256.503 28.8333 256.61 29.82H254.95C254.897 29.3133 254.683 28.92 254.31 28.64C253.95 28.3467 253.457 28.2 252.83 28.2C252.203 28.2 251.73 28.3267 251.41 28.58C251.09 28.8333 250.93 29.1667 250.93 29.58C250.93 29.8333 251.017 30.06 251.19 30.26C251.377 30.46 251.643 30.6333 251.99 30.78C252.35 30.9133 252.783 31.0267 253.29 31.12C253.93 31.2533 254.523 31.42 255.07 31.62C255.617 31.8067 256.063 32.0933 256.41 32.48C256.757 32.8667 256.93 33.42 256.93 34.14C256.943 34.7533 256.79 35.2933 256.47 35.76C256.15 36.2267 255.703 36.5933 255.13 36.86C254.57 37.1133 253.897 37.24 253.11 37.24ZM259.4 41.4L261.86 35.88H261.28L257.32 27.02H259.14L262.44 34.64L265.9 27.02H267.64L261.16 41.4H259.4ZM272.027 37.24C271.227 37.24 270.514 37.1067 269.887 36.84C269.26 36.56 268.76 36.1733 268.387 35.68C268.014 35.1733 267.78 34.58 267.687 33.9H269.407C269.487 34.2467 269.634 34.5667 269.847 34.86C270.074 35.1533 270.367 35.3867 270.727 35.56C271.1 35.7333 271.54 35.82 272.047 35.82C272.527 35.82 272.914 35.7533 273.207 35.62C273.514 35.4733 273.74 35.2867 273.887 35.06C274.047 34.82 274.127 34.56 274.127 34.28C274.127 33.88 274.027 33.5733 273.827 33.36C273.64 33.1467 273.36 32.98 272.987 32.86C272.614 32.74 272.167 32.6267 271.647 32.52C271.22 32.44 270.794 32.3333 270.367 32.2C269.954 32.0667 269.58 31.9 269.247 31.7C268.914 31.4867 268.647 31.22 268.447 30.9C268.247 30.58 268.147 30.1933 268.147 29.74C268.147 29.1667 268.294 28.66 268.587 28.22C268.88 27.7667 269.294 27.4133 269.827 27.16C270.374 26.9067 271.02 26.78 271.767 26.78C272.82 26.78 273.68 27.04 274.347 27.56C275.027 28.08 275.42 28.8333 275.527 29.82H273.867C273.814 29.3133 273.6 28.92 273.227 28.64C272.867 28.3467 272.374 28.2 271.747 28.2C271.12 28.2 270.647 28.3267 270.327 28.58C270.007 28.8333 269.847 29.1667 269.847 29.58C269.847 29.8333 269.934 30.06 270.107 30.26C270.294 30.46 270.56 30.6333 270.907 30.78C271.267 30.9133 271.7 31.0267 272.207 31.12C272.847 31.2533 273.44 31.42 273.987 31.62C274.534 31.8067 274.98 32.0933 275.327 32.48C275.674 32.8667 275.847 33.42 275.847 34.14C275.86 34.7533 275.707 35.2933 275.387 35.76C275.067 36.2267 274.62 36.5933 274.047 36.86C273.487 37.1133 272.814 37.24 272.027 37.24ZM281.137 37C280.537 37 280.017 36.9067 279.577 36.72C279.137 36.5333 278.797 36.22 278.557 35.78C278.331 35.3267 278.217 34.72 278.217 33.96V28.44H276.477V27.02H278.217L278.437 24.62H279.897V27.02H282.817V28.44H279.897V33.96C279.897 34.5867 280.024 35.0133 280.277 35.24C280.531 35.4533 280.977 35.56 281.617 35.56H282.677V37H281.137ZM288.557 37.24C287.611 37.24 286.771 37.0267 286.037 36.6C285.304 36.16 284.724 35.5467 284.297 34.76C283.884 33.9733 283.677 33.0533 283.677 32C283.677 30.9467 283.884 30.0333 284.297 29.26C284.711 28.4733 285.284 27.8667 286.017 27.44C286.764 27 287.624 26.78 288.597 26.78C289.571 26.78 290.404 27 291.097 27.44C291.791 27.8667 292.317 28.4333 292.677 29.14C293.051 29.8467 293.237 30.62 293.237 31.46C293.237 31.5933 293.237 31.7333 293.237 31.88C293.237 32.0267 293.231 32.1933 293.217 32.38H284.937V31.08H291.577C291.551 30.1733 291.251 29.4667 290.677 28.96C290.117 28.4533 289.411 28.2 288.557 28.2C287.984 28.2 287.451 28.3267 286.957 28.58C286.464 28.8333 286.064 29.2067 285.757 29.7C285.464 30.1933 285.317 30.8067 285.317 31.54V32.1C285.317 32.9267 285.471 33.62 285.777 34.18C286.084 34.7267 286.484 35.14 286.977 35.42C287.471 35.6867 287.997 35.82 288.557 35.82C289.251 35.82 289.824 35.6667 290.277 35.36C290.744 35.04 291.084 34.6067 291.297 34.06H292.957C292.784 34.66 292.497 35.2 292.097 35.68C291.711 36.16 291.217 36.54 290.617 36.82C290.031 37.1 289.344 37.24 288.557 37.24ZM294.884 37V27.02H296.404L296.524 28.46C296.844 27.9267 297.271 27.5133 297.804 27.22C298.337 26.9267 298.937 26.78 299.604 26.78C300.124 26.78 300.591 26.8533 301.004 27C301.431 27.1333 301.804 27.3467 302.124 27.64C302.457 27.92 302.724 28.28 302.924 28.72C303.271 28.1067 303.751 27.6333 304.364 27.3C304.977 26.9533 305.624 26.78 306.304 26.78C307.091 26.78 307.777 26.94 308.364 27.26C308.951 27.5667 309.397 28.04 309.704 28.68C310.024 29.32 310.184 30.1333 310.184 31.12V37H308.524V31.3C308.524 30.2733 308.317 29.5067 307.904 29C307.491 28.48 306.904 28.22 306.144 28.22C305.611 28.22 305.137 28.36 304.724 28.64C304.311 28.92 303.984 29.32 303.744 29.84C303.504 30.36 303.384 31.0067 303.384 31.78V37H301.704V31.3C301.704 30.2733 301.497 29.5067 301.084 29C300.671 28.48 300.077 28.22 299.304 28.22C298.797 28.22 298.331 28.36 297.904 28.64C297.491 28.92 297.164 29.32 296.924 29.84C296.684 30.36 296.564 31.0067 296.564 31.78V37H294.884Z" fill="white"/>
<path d="M6.38936 104V90H8.06936L15.5294 101.22V90H17.2094V104H15.5294L8.06936 92.78V104H6.38936ZM23.9579 104.24C23.0113 104.24 22.1713 104.027 21.4379 103.6C20.7046 103.16 20.1246 102.547 19.6979 101.76C19.2846 100.973 19.0779 100.053 19.0779 99C19.0779 97.9467 19.2846 97.0333 19.6979 96.26C20.1113 95.4733 20.6846 94.8667 21.4179 94.44C22.1646 94 23.0246 93.78 23.9979 93.78C24.9713 93.78 25.8046 94 26.4979 94.44C27.1913 94.8667 27.7179 95.4333 28.0779 96.14C28.4513 96.8467 28.6379 97.62 28.6379 98.46C28.6379 98.5933 28.6379 98.7333 28.6379 98.88C28.6379 99.0267 28.6313 99.1933 28.6179 99.38H20.3379V98.08H26.9779C26.9513 97.1733 26.6513 96.4667 26.0779 95.96C25.5179 95.4533 24.8113 95.2 23.9579 95.2C23.3846 95.2 22.8513 95.3267 22.3579 95.58C21.8646 95.8333 21.4646 96.2067 21.1579 96.7C20.8646 97.1933 20.7179 97.8067 20.7179 98.54V99.1C20.7179 99.9267 20.8713 100.62 21.1779 101.18C21.4846 101.727 21.8846 102.14 22.3779 102.42C22.8713 102.687 23.3979 102.82 23.9579 102.82C24.6513 102.82 25.2246 102.667 25.6779 102.36C26.1446 102.04 26.4846 101.607 26.6979 101.06H28.3579C28.1846 101.66 27.8979 102.2 27.4979 102.68C27.1113 103.16 26.6179 103.54 26.0179 103.82C25.4313 104.1 24.7446 104.24 23.9579 104.24ZM31.914 104L28.994 94.02H30.674L32.974 102.54L32.594 102.52L35.134 94.02H37.034L39.574 102.52L39.174 102.54L41.474 94.02H43.174L40.254 104H38.534L35.894 95.1H36.294L33.634 104H31.914ZM53.6837 104.24C52.6571 104.24 51.7637 104.053 51.0037 103.68C50.2437 103.307 49.6571 102.787 49.2437 102.12C48.8304 101.453 48.6237 100.68 48.6237 99.8H50.3837C50.3837 100.347 50.5104 100.853 50.7637 101.32C51.0171 101.773 51.3837 102.14 51.8637 102.42C52.3571 102.687 52.9637 102.82 53.6837 102.82C54.3104 102.82 54.8437 102.72 55.2837 102.52C55.7371 102.307 56.0771 102.02 56.3037 101.66C56.5437 101.3 56.6637 100.893 56.6637 100.44C56.6637 99.88 56.5437 99.4333 56.3037 99.1C56.0771 98.7533 55.7571 98.4733 55.3437 98.26C54.9437 98.0467 54.4771 97.86 53.9437 97.7C53.4237 97.54 52.8771 97.36 52.3037 97.16C51.2237 96.7867 50.4171 96.3267 49.8837 95.78C49.3637 95.22 49.1037 94.4933 49.1037 93.6C49.1037 92.84 49.2771 92.1733 49.6237 91.6C49.9837 91.0267 50.4904 90.58 51.1437 90.26C51.8104 89.9267 52.5971 89.76 53.5037 89.76C54.3971 89.76 55.1704 89.9267 55.8237 90.26C56.4904 90.5933 57.0104 91.0533 57.3837 91.64C57.7571 92.2133 57.9437 92.88 57.9437 93.64H56.1837C56.1837 93.2533 56.0837 92.8733 55.8837 92.5C55.6837 92.1267 55.3771 91.82 54.9637 91.58C54.5637 91.3267 54.0571 91.2 53.4437 91.2C52.9371 91.1867 52.4837 91.2733 52.0837 91.46C51.6971 91.6333 51.3904 91.8867 51.1637 92.22C50.9504 92.5533 50.8437 92.96 50.8437 93.44C50.8437 93.8933 50.9371 94.26 51.1237 94.54C51.3237 94.82 51.6037 95.06 51.9637 95.26C52.3371 95.4467 52.7704 95.62 53.2637 95.78C53.7571 95.94 54.3037 96.12 54.9037 96.32C55.5837 96.5467 56.1837 96.8267 56.7037 97.16C57.2371 97.48 57.6504 97.8933 57.9437 98.4C58.2504 98.9067 58.4037 99.5533 58.4037 100.34C58.4037 101.007 58.2237 101.64 57.8637 102.24C57.5171 102.827 56.9971 103.307 56.3037 103.68C55.6104 104.053 54.7371 104.24 53.6837 104.24ZM63.7458 104.24C62.9724 104.24 62.2924 104.087 61.7058 103.78C61.1324 103.46 60.6858 102.98 60.3658 102.34C60.0591 101.7 59.9058 100.893 59.9058 99.92V94.02H61.5858V99.74C61.5858 100.753 61.7991 101.52 62.2258 102.04C62.6658 102.547 63.2991 102.8 64.1258 102.8C64.6858 102.8 65.1924 102.667 65.6458 102.4C66.0991 102.12 66.4524 101.72 66.7058 101.2C66.9724 100.667 67.1058 100.02 67.1058 99.26V94.02H68.7858V104H67.2658L67.1658 102.24C66.8591 102.853 66.3991 103.34 65.7858 103.7C65.1858 104.06 64.5058 104.24 63.7458 104.24ZM76.2706 104.24C75.7106 104.24 75.1973 104.16 74.7306 104C74.2773 103.84 73.8706 103.62 73.5106 103.34C73.1639 103.06 72.8773 102.727 72.6506 102.34L72.4906 104H70.9706V89.6H72.6506V95.66C72.9706 95.1667 73.4306 94.7333 74.0306 94.36C74.6306 93.9733 75.3839 93.78 76.2906 93.78C77.2639 93.78 78.1173 94.0067 78.8506 94.46C79.5839 94.9133 80.1506 95.54 80.5506 96.34C80.9639 97.1267 81.1706 98.02 81.1706 99.02C81.1706 100.033 80.9639 100.933 80.5506 101.72C80.1506 102.493 79.5839 103.107 78.8506 103.56C78.1173 104.013 77.2573 104.24 76.2706 104.24ZM76.0906 102.78C76.7439 102.78 77.3239 102.627 77.8306 102.32C78.3506 102 78.7506 101.56 79.0306 101C79.3239 100.427 79.4706 99.76 79.4706 99C79.4706 98.2533 79.3239 97.6 79.0306 97.04C78.7506 96.4667 78.3506 96.0267 77.8306 95.72C77.3239 95.4 76.7439 95.24 76.0906 95.24C75.4239 95.24 74.8306 95.4 74.3106 95.72C73.8039 96.0267 73.4039 96.4667 73.1106 97.04C72.8306 97.6 72.6906 98.2533 72.6906 99C72.6906 99.76 72.8306 100.427 73.1106 101C73.4039 101.56 73.8039 102 74.3106 102.32C74.8306 102.627 75.4239 102.78 76.0906 102.78ZM82.9097 104V94.02H84.4297L84.5297 95.78C84.8497 95.1667 85.3097 94.68 85.9097 94.32C86.5097 93.96 87.1897 93.78 87.9497 93.78C88.7363 93.78 89.4163 93.94 89.9897 94.26C90.563 94.5667 91.0097 95.04 91.3297 95.68C91.6497 96.32 91.8097 97.1267 91.8097 98.1V104H90.1297V98.28C90.1297 97.2667 89.903 96.5067 89.4497 96C89.0097 95.48 88.383 95.22 87.5697 95.22C86.9963 95.22 86.483 95.36 86.0297 95.64C85.5897 95.9067 85.2363 96.3067 84.9697 96.84C84.7163 97.36 84.5897 98 84.5897 98.76V104H82.9097ZM98.2345 104.24C97.2878 104.24 96.4478 104.027 95.7145 103.6C94.9812 103.16 94.4012 102.547 93.9745 101.76C93.5612 100.973 93.3545 100.053 93.3545 99C93.3545 97.9467 93.5612 97.0333 93.9745 96.26C94.3878 95.4733 94.9612 94.8667 95.6945 94.44C96.4412 94 97.3012 93.78 98.2745 93.78C99.2478 93.78 100.081 94 100.775 94.44C101.468 94.8667 101.995 95.4333 102.355 96.14C102.728 96.8467 102.915 97.62 102.915 98.46C102.915 98.5933 102.915 98.7333 102.915 98.88C102.915 99.0267 102.908 99.1933 102.895 99.38H94.6145V98.08H101.255C101.228 97.1733 100.928 96.4667 100.355 95.96C99.7945 95.4533 99.0878 95.2 98.2345 95.2C97.6612 95.2 97.1278 95.3267 96.6345 95.58C96.1412 95.8333 95.7412 96.2067 95.4345 96.7C95.1412 97.1933 94.9945 97.8067 94.9945 98.54V99.1C94.9945 99.9267 95.1478 100.62 95.4545 101.18C95.7612 101.727 96.1612 102.14 96.6545 102.42C97.1478 102.687 97.6745 102.82 98.2345 102.82C98.9278 102.82 99.5012 102.667 99.9545 102.36C100.421 102.04 100.761 101.607 100.975 101.06H102.635C102.461 101.66 102.175 102.2 101.775 102.68C101.388 103.16 100.895 103.54 100.295 103.82C99.7078 104.1 99.0212 104.24 98.2345 104.24ZM108.169 104C107.569 104 107.049 103.907 106.609 103.72C106.169 103.533 105.829 103.22 105.589 102.78C105.363 102.327 105.249 101.72 105.249 100.96V95.44H103.509V94.02H105.249L105.469 91.62H106.929V94.02H109.849V95.44H106.929V100.96C106.929 101.587 107.056 102.013 107.309 102.24C107.563 102.453 108.009 102.56 108.649 102.56H109.709V104H108.169Z" fill="white"/>
<path d="M157.765 136.836C158.546 136.055 158.546 134.788 157.765 134.007L145.037 121.279C144.256 120.498 142.99 120.498 142.209 121.279C141.428 122.06 141.428 123.327 142.209 124.108L153.522 135.421L142.209 146.735C141.428 147.516 141.428 148.783 142.209 149.564C142.99 150.345 144.256 150.345 145.037 149.564L157.765 136.836ZM89.4639 135.421L89.4639 137.421L156.351 137.421L156.351 135.421L156.351 133.421L89.4639 133.421L89.4639 135.421Z" fill="white"/>
<circle cx="55.2603" cy="136.182" r="19.002" fill="#00FF85"/>
<path d="M276.641 64.0603V80.1355L262.718 88.1756L248.795 80.1355V64.0603L262.718 56.0213L276.641 64.0603Z" fill="#00FF85" stroke="black" stroke-width="0.5"/>
<path d="M248.808 63.9158L262.79 72.5279" stroke="black" stroke-width="0.5"/>
<path d="M262.647 72.5279L276.629 63.9158" stroke="black" stroke-width="0.5"/>
<path d="M262.718 88.2827L262.718 72.3713" stroke="black" stroke-width="0.5"/>
<path d="M347.557 104.974V121.049L333.635 129.089L319.712 121.049V104.974L333.635 96.9346L347.557 104.974Z" fill="#00FF85" stroke="black" stroke-width="0.5"/>
<path d="M319.724 104.829L333.706 113.441" stroke="black" stroke-width="0.5"/>
<path d="M333.563 113.441L347.545 104.829" stroke="black" stroke-width="0.5"/>
<path d="M333.634 129.196L333.634 113.285" stroke="black" stroke-width="0.5"/>
<path d="M312.099 125.158V141.233L298.176 149.273L284.253 141.233V125.158L298.176 117.119L312.099 125.158Z" fill="white" stroke="black" stroke-width="0.5"/>
<path d="M284.266 125.013L298.248 133.625" stroke="black" stroke-width="0.5"/>
<path d="M298.105 133.625L312.087 125.013" stroke="black" stroke-width="0.5"/>
<path d="M298.176 149.38L298.176 133.469" stroke="black" stroke-width="0.5"/>
<path d="M347.557 186.8V202.876L333.635 210.916L319.712 202.876V186.8L333.635 178.761L347.557 186.8Z" fill="#00FF85" stroke="black" stroke-width="0.5"/>
<path d="M319.724 186.656L333.706 195.268" stroke="black" stroke-width="0.5"/>
<path d="M333.563 195.268L347.545 186.656" stroke="black" stroke-width="0.5"/>
<path d="M333.634 211.023L333.634 195.111" stroke="black" stroke-width="0.5"/>
<path d="M312.099 206.984V223.06L298.176 231.1L284.253 223.06V206.984L298.176 198.945L312.099 206.984Z" fill="white" stroke="black" stroke-width="0.5"/>
<path d="M284.266 206.84L298.248 215.452" stroke="black" stroke-width="0.5"/>
<path d="M298.105 215.452L312.087 206.84" stroke="black" stroke-width="0.5"/>
<path d="M298.176 231.207L298.176 215.295" stroke="black" stroke-width="0.5"/>
<path d="M276.641 227.714V243.789L262.718 251.829L248.795 243.789V227.714L262.718 219.675L276.641 227.714Z" fill="#00FF85" stroke="black" stroke-width="0.5"/>
<path d="M248.808 227.569L262.79 236.181" stroke="black" stroke-width="0.5"/>
<path d="M262.647 236.181L276.629 227.569" stroke="black" stroke-width="0.5"/>
<path d="M262.718 251.936L262.718 236.025" stroke="black" stroke-width="0.5"/>
<path d="M205.724 187.346V203.421L191.802 211.461L177.879 203.421V187.346L191.802 179.307L205.724 187.346Z" fill="#00FF85" stroke="black" stroke-width="0.5"/>
<path d="M177.891 187.201L191.874 195.813" stroke="black" stroke-width="0.5"/>
<path d="M191.73 195.813L205.713 187.201" stroke="black" stroke-width="0.5"/>
<path d="M191.802 211.568L191.802 195.657" stroke="black" stroke-width="0.5"/>
<path d="M241.183 207.53V223.605L227.26 231.645L213.337 223.605V207.53L227.26 199.491L241.183 207.53Z" fill="white" stroke="black" stroke-width="0.5"/>
<path d="M213.349 207.385L227.332 215.997" stroke="black" stroke-width="0.5"/>
<path d="M227.189 215.997L241.171 207.385" stroke="black" stroke-width="0.5"/>
<path d="M227.26 231.752L227.26 215.841" stroke="black" stroke-width="0.5"/>
<path d="M276.641 145.887V161.962L262.718 170.002L248.795 161.962V145.887L262.718 137.848L276.641 145.887Z" fill="#00FF85" stroke="black" stroke-width="0.5"/>
<path d="M248.808 145.743L262.79 154.355" stroke="black" stroke-width="0.5"/>
<path d="M262.647 154.355L276.629 145.743" stroke="black" stroke-width="0.5"/>
<path d="M262.718 170.109L262.718 154.198" stroke="black" stroke-width="0.5"/>
<path d="M276.641 186.8V202.876L262.718 210.916L248.795 202.876V186.8L262.718 178.761L276.641 186.8Z" fill="white" stroke="black" stroke-width="0.5"/>
<path d="M248.808 186.656L262.79 195.268" stroke="black" stroke-width="0.5"/>
<path d="M262.647 195.268L276.629 186.656" stroke="black" stroke-width="0.5"/>
<path d="M262.718 211.023L262.718 195.111" stroke="black" stroke-width="0.5"/>
<path d="M205.724 145.887V161.962L191.802 170.002L177.879 161.962V145.887L191.802 137.848L205.724 145.887Z" fill="white" stroke="black" stroke-width="0.5"/>
<path d="M177.891 145.743L191.874 154.355" stroke="black" stroke-width="0.5"/>
<path d="M191.73 154.355L205.713 145.743" stroke="black" stroke-width="0.5"/>
<path d="M191.802 170.109L191.802 154.198" stroke="black" stroke-width="0.5"/>
<path d="M241.183 166.071V182.146L227.26 190.186L213.337 182.146V166.071L227.26 158.032L241.183 166.071Z" fill="#00FF85" stroke="black" stroke-width="0.5"/>
<path d="M213.349 165.926L227.332 174.539" stroke="black" stroke-width="0.5"/>
<path d="M227.189 174.539L241.171 165.927" stroke="black" stroke-width="0.5"/>
<path d="M227.26 190.293L227.26 174.382" stroke="black" stroke-width="0.5"/>
<path d="M347.557 145.887V161.962L333.635 170.002L319.712 161.962V145.887L333.635 137.848L347.557 145.887Z" fill="white" stroke="black" stroke-width="0.5"/>
<path d="M319.724 145.743L333.706 154.355" stroke="black" stroke-width="0.5"/>
<path d="M333.563 154.355L347.545 145.743" stroke="black" stroke-width="0.5"/>
<path d="M333.634 170.109L333.634 154.198" stroke="black" stroke-width="0.5"/>
<path d="M312.099 166.071V182.146L298.176 190.186L284.253 182.146V166.071L298.176 158.032L312.099 166.071Z" fill="#00FF85" stroke="black" stroke-width="0.5"/>
<path d="M284.266 165.926L298.248 174.539" stroke="black" stroke-width="0.5"/>
<path d="M298.105 174.539L312.087 165.927" stroke="black" stroke-width="0.5"/>
<path d="M298.176 190.293L298.176 174.382" stroke="black" stroke-width="0.5"/>
<path d="M276.641 105.519V121.594L262.718 129.634L248.795 121.594V105.519L262.718 97.4801L276.641 105.519Z" fill="#00FF85" stroke="black" stroke-width="0.5"/>
<path d="M248.808 105.375L262.79 113.987" stroke="black" stroke-width="0.5"/>
<path d="M262.647 113.987L276.629 105.375" stroke="black" stroke-width="0.5"/>
<path d="M262.718 129.742L262.718 113.83" stroke="black" stroke-width="0.5"/>
<path d="M241.183 84.7897V100.865L227.26 108.905L213.337 100.865V84.7897L227.26 76.7506L241.183 84.7897Z" fill="white" stroke="black" stroke-width="0.5"/>
<path d="M213.349 84.6453L227.332 93.2573" stroke="black" stroke-width="0.5"/>
<path d="M227.189 93.2572L241.171 84.6452" stroke="black" stroke-width="0.5"/>
<path d="M227.26 109.012L227.26 93.1006" stroke="black" stroke-width="0.5"/>
<path d="M312.099 84.7897V100.865L298.176 108.905L284.253 100.865V84.7897L298.176 76.7506L312.099 84.7897Z" fill="white" stroke="black" stroke-width="0.5"/>
<path d="M284.266 84.6453L298.248 93.2573" stroke="black" stroke-width="0.5"/>
<path d="M298.105 93.2572L312.087 84.6452" stroke="black" stroke-width="0.5"/>
<path d="M298.176 109.012L298.176 93.1006" stroke="black" stroke-width="0.5"/>
<path d="M205.724 104.974V121.049L191.802 129.089L177.879 121.049V104.974L191.802 96.9346L205.724 104.974Z" fill="#00FF85" stroke="black" stroke-width="0.5"/>
<path d="M177.891 104.829L191.874 113.441" stroke="black" stroke-width="0.5"/>
<path d="M191.73 113.441L205.713 104.829" stroke="black" stroke-width="0.5"/>
<path d="M191.802 129.196L191.802 113.285" stroke="black" stroke-width="0.5"/>
<path d="M241.183 125.158V141.233L227.26 149.273L213.337 141.233V125.158L227.26 117.119L241.183 125.158Z" fill="white" stroke="black" stroke-width="0.5"/>
<path d="M213.349 125.013L227.332 133.625" stroke="black" stroke-width="0.5"/>
<path d="M227.189 133.625L241.171 125.013" stroke="black" stroke-width="0.5"/>
<path d="M227.26 149.38L227.26 133.469" stroke="black" stroke-width="0.5"/>
</svg>
