<svg width="911" height="1024" viewBox="0 0 911 1024" fill="none" xmlns="http://www.w3.org/2000/svg">
<path d="M381.46 42.811L455.111 0.288675L528.762 42.811V127.856L455.111 170.378L381.46 127.856V42.811Z" fill="#00FF85" stroke="black" stroke-width="0.5"/>
<path d="M382.578 42.6667L455.484 87.5722" stroke="black" stroke-width="0.5"/>
<path d="M454.738 87.5721L527.644 42.6667" stroke="black" stroke-width="0.5"/>
<path d="M455.111 169.722L455.111 86.7556" stroke="black" stroke-width="0.5"/>
<path d="M751.238 256.144L824.889 213.622L898.54 256.144V341.189L824.889 383.711L751.238 341.189V256.144Z" fill="#00FF85" stroke="black" stroke-width="0.5"/>
<path d="M752.355 256L825.262 300.905" stroke="black" stroke-width="0.5"/>
<path d="M824.516 300.906L897.422 256" stroke="black" stroke-width="0.5"/>
<path d="M824.889 383.056L824.889 300.089" stroke="black" stroke-width="0.5"/>
<path d="M566.349 361.389L640 318.867L713.651 361.389V446.434L640 488.956L566.349 446.434V361.389Z" fill="white" stroke="black" stroke-width="0.5"/>
<path d="M567.467 361.245L640.373 406.15" stroke="black" stroke-width="0.5"/>
<path d="M639.627 406.15L712.533 361.245" stroke="black" stroke-width="0.5"/>
<path d="M640 488.3L640 405.333" stroke="black" stroke-width="0.5"/>
<path d="M751.238 682.811L824.889 640.289L898.54 682.811V767.856L824.889 810.378L751.238 767.856V682.811Z" fill="#00FF85" stroke="black" stroke-width="0.5"/>
<path d="M752.355 682.667L825.262 727.572" stroke="black" stroke-width="0.5"/>
<path d="M824.516 727.572L897.422 682.667" stroke="black" stroke-width="0.5"/>
<path d="M824.889 809.722L824.889 726.756" stroke="black" stroke-width="0.5"/>
<path d="M566.349 788.056L640 745.533L713.651 788.056V873.1L640 915.622L566.349 873.1V788.056Z" fill="white" stroke="black" stroke-width="0.5"/>
<path d="M567.467 787.911L640.373 832.817" stroke="black" stroke-width="0.5"/>
<path d="M639.627 832.817L712.533 787.911" stroke="black" stroke-width="0.5"/>
<path d="M640 914.967L640 832" stroke="black" stroke-width="0.5"/>
<path d="M381.46 896.144L455.111 853.622L528.762 896.144V981.189L455.111 1023.71L381.46 981.189V896.144Z" fill="#00FF85" stroke="black" stroke-width="0.5"/>
<path d="M382.578 896L455.484 940.905" stroke="black" stroke-width="0.5"/>
<path d="M454.738 940.905L527.644 896" stroke="black" stroke-width="0.5"/>
<path d="M455.111 1023.06L455.111 940.089" stroke="black" stroke-width="0.5"/>
<path d="M11.6825 685.655L85.3333 643.133L158.984 685.655V770.7L85.3333 813.222L11.6825 770.7V685.655Z" fill="#00FF85" stroke="black" stroke-width="0.5"/>
<path d="M12.8 685.511L85.706 730.416" stroke="black" stroke-width="0.5"/>
<path d="M84.9606 730.416L157.867 685.511" stroke="black" stroke-width="0.5"/>
<path d="M85.3333 812.567L85.3333 729.6" stroke="black" stroke-width="0.5"/>
<path d="M196.571 790.9L270.222 748.378L343.873 790.9V875.945L270.222 918.467L196.571 875.945V790.9Z" fill="white" stroke="black" stroke-width="0.5"/>
<path d="M197.689 790.756L270.595 835.661" stroke="black" stroke-width="0.5"/>
<path d="M269.85 835.661L342.756 790.756" stroke="black" stroke-width="0.5"/>
<path d="M270.222 917.811L270.222 834.844" stroke="black" stroke-width="0.5"/>
<path d="M381.46 469.478L455.111 426.955L528.762 469.478V554.522L455.111 597.045L381.46 554.522V469.478Z" fill="#00FF85" stroke="black" stroke-width="0.5"/>
<path d="M382.578 469.333L455.484 514.239" stroke="black" stroke-width="0.5"/>
<path d="M454.738 514.239L527.644 469.333" stroke="black" stroke-width="0.5"/>
<path d="M455.111 596.389L455.111 513.422" stroke="black" stroke-width="0.5"/>
<path d="M381.46 682.811L455.111 640.289L528.762 682.811V767.856L455.111 810.378L381.46 767.856V682.811Z" fill="white" stroke="black" stroke-width="0.5"/>
<path d="M382.578 682.667L455.484 727.572" stroke="black" stroke-width="0.5"/>
<path d="M454.738 727.572L527.644 682.667" stroke="black" stroke-width="0.5"/>
<path d="M455.111 809.722L455.111 726.756" stroke="black" stroke-width="0.5"/>
<path d="M11.6825 469.478L85.3333 426.955L158.984 469.478V554.522L85.3333 597.045L11.6825 554.522V469.478Z" fill="white" stroke="black" stroke-width="0.5"/>
<path d="M12.8 469.333L85.706 514.239" stroke="black" stroke-width="0.5"/>
<path d="M84.9606 514.239L157.867 469.333" stroke="black" stroke-width="0.5"/>
<path d="M85.3333 596.389L85.3333 513.422" stroke="black" stroke-width="0.5"/>
<path d="M196.571 574.722L270.222 532.2L343.873 574.722V659.767L270.222 702.289L196.571 659.767V574.722Z" fill="#00FF85" stroke="black" stroke-width="0.5"/>
<path d="M197.689 574.578L270.595 619.483" stroke="black" stroke-width="0.5"/>
<path d="M269.85 619.483L342.756 574.578" stroke="black" stroke-width="0.5"/>
<path d="M270.222 701.633L270.222 618.667" stroke="black" stroke-width="0.5"/>
<path d="M751.238 469.478L824.889 426.955L898.54 469.478V554.522L824.889 597.045L751.238 554.522V469.478Z" fill="white" stroke="black" stroke-width="0.5"/>
<path d="M752.355 469.333L825.262 514.239" stroke="black" stroke-width="0.5"/>
<path d="M824.516 514.239L897.422 469.333" stroke="black" stroke-width="0.5"/>
<path d="M824.889 596.389L824.889 513.422" stroke="black" stroke-width="0.5"/>
<path d="M566.349 574.722L640 532.2L713.651 574.722V659.767L640 702.289L566.349 659.767V574.722Z" fill="#00FF85" stroke="black" stroke-width="0.5"/>
<path d="M567.467 574.578L640.373 619.483" stroke="black" stroke-width="0.5"/>
<path d="M639.627 619.483L712.533 574.578" stroke="black" stroke-width="0.5"/>
<path d="M640 701.633L640 618.667" stroke="black" stroke-width="0.5"/>
<path d="M381.46 258.989L455.111 216.466L528.762 258.989V344.033L455.111 386.556L381.46 344.033V258.989Z" fill="#00FF85" stroke="black" stroke-width="0.5"/>
<path d="M382.578 258.844L455.484 303.75" stroke="black" stroke-width="0.5"/>
<path d="M454.738 303.75L527.644 258.844" stroke="black" stroke-width="0.5"/>
<path d="M455.111 385.9L455.111 302.933" stroke="black" stroke-width="0.5"/>
<path d="M196.571 150.9L270.222 108.378L343.873 150.9V235.945L270.222 278.467L196.571 235.945V150.9Z" fill="white" stroke="black" stroke-width="0.5"/>
<path d="M197.689 150.756L270.595 195.661" stroke="black" stroke-width="0.5"/>
<path d="M269.85 195.661L342.756 150.755" stroke="black" stroke-width="0.5"/>
<path d="M270.222 277.811L270.222 194.844" stroke="black" stroke-width="0.5"/>
<path d="M566.349 150.9L640 108.378L713.651 150.9V235.945L640 278.467L566.349 235.945V150.9Z" fill="white" stroke="black" stroke-width="0.5"/>
<path d="M567.467 150.756L640.373 195.661" stroke="black" stroke-width="0.5"/>
<path d="M639.627 195.661L712.533 150.755" stroke="black" stroke-width="0.5"/>
<path d="M640 277.811L640 194.844" stroke="black" stroke-width="0.5"/>
<path d="M11.6825 256.144L85.3333 213.622L158.984 256.144V341.189L85.3333 383.711L11.6825 341.189V256.144Z" fill="#00FF85" stroke="black" stroke-width="0.5"/>
<path d="M12.8 256L85.706 300.905" stroke="black" stroke-width="0.5"/>
<path d="M84.9606 300.906L157.867 256" stroke="black" stroke-width="0.5"/>
<path d="M85.3333 383.056L85.3333 300.089" stroke="black" stroke-width="0.5"/>
<path d="M196.571 361.389L270.222 318.867L343.873 361.389V446.434L270.222 488.956L196.571 446.434V361.389Z" fill="white" stroke="black" stroke-width="0.5"/>
<path d="M197.689 361.245L270.595 406.15" stroke="black" stroke-width="0.5"/>
<path d="M269.85 406.15L342.756 361.245" stroke="black" stroke-width="0.5"/>
<path d="M270.222 488.3L270.222 405.333" stroke="black" stroke-width="0.5"/>
</svg>
