<svg width="2154" height="296" viewBox="0 0 2154 296" fill="none" xmlns="http://www.w3.org/2000/svg">
<path d="M84.012 69.5193L100 60.2887L115.988 69.5193V87.9807L100 97.2113L84.012 87.9807V69.5193Z" fill="#00FF85" stroke="black" stroke-width="0.5"/>
<path d="M84.0625 69.375L100.082 79.2419" stroke="black" stroke-width="0.5"/>
<path d="M99.9181 79.242L115.937 69.3751" stroke="black" stroke-width="0.5"/>
<path d="M100 97.2925L100 79.0625" stroke="black" stroke-width="0.5"/>
<path d="M165.262 116.394L181.25 107.164L197.238 116.394V134.856L181.25 144.086L165.262 134.856V116.394Z" fill="#00FF85" stroke="black" stroke-width="0.5"/>
<path d="M165.312 116.25L181.332 126.117" stroke="black" stroke-width="0.5"/>
<path d="M181.168 126.117L197.187 116.25" stroke="black" stroke-width="0.5"/>
<path d="M181.25 144.167L181.25 125.938" stroke="black" stroke-width="0.5"/>
<path d="M124.637 139.519L140.625 130.289L156.613 139.519V157.981L140.625 167.211L124.637 157.981V139.519Z" fill="white" stroke="black" stroke-width="0.5"/>
<path d="M124.688 139.375L140.707 149.242" stroke="black" stroke-width="0.5"/>
<path d="M140.543 149.242L156.563 139.375" stroke="black" stroke-width="0.5"/>
<path d="M140.625 167.292L140.625 149.063" stroke="black" stroke-width="0.5"/>
<path d="M165.262 210.144L181.25 200.914L197.238 210.144V228.606L181.25 237.836L165.262 228.606V210.144Z" fill="#00FF85" stroke="black" stroke-width="0.5"/>
<path d="M165.312 210L181.332 219.867" stroke="black" stroke-width="0.5"/>
<path d="M181.168 219.867L197.187 210" stroke="black" stroke-width="0.5"/>
<path d="M181.25 237.917L181.25 219.688" stroke="black" stroke-width="0.5"/>
<path d="M124.637 233.269L140.625 224.039L156.613 233.269V251.731L140.625 260.961L124.637 251.731V233.269Z" fill="white" stroke="black" stroke-width="0.5"/>
<path d="M124.688 233.125L140.707 242.992" stroke="black" stroke-width="0.5"/>
<path d="M140.543 242.992L156.563 233.125" stroke="black" stroke-width="0.5"/>
<path d="M140.625 261.042L140.625 242.813" stroke="black" stroke-width="0.5"/>
<path d="M84.012 257.019L100 247.789L115.988 257.019V275.481L100 284.711L84.012 275.481V257.019Z" fill="#00FF85" stroke="black" stroke-width="0.5"/>
<path d="M84.0625 256.875L100.082 266.742" stroke="black" stroke-width="0.5"/>
<path d="M99.9181 266.742L115.937 256.875" stroke="black" stroke-width="0.5"/>
<path d="M100 284.792L100 266.563" stroke="black" stroke-width="0.5"/>
<path d="M2.76202 210.769L18.75 201.539L34.738 210.769V229.231L18.75 238.461L2.76202 229.231V210.769Z" fill="#00FF85" stroke="black" stroke-width="0.5"/>
<path d="M2.8125 210.625L18.8319 220.492" stroke="black" stroke-width="0.5"/>
<path d="M18.6681 220.492L34.6875 210.625" stroke="black" stroke-width="0.5"/>
<path d="M18.75 238.542L18.75 220.313" stroke="black" stroke-width="0.5"/>
<path d="M43.387 233.894L59.375 224.664L75.363 233.894V252.356L59.375 261.586L43.387 252.356V233.894Z" fill="white" stroke="black" stroke-width="0.5"/>
<path d="M43.4375 233.75L59.4569 243.617" stroke="black" stroke-width="0.5"/>
<path d="M59.2931 243.617L75.3125 233.75" stroke="black" stroke-width="0.5"/>
<path d="M59.375 261.667L59.375 243.438" stroke="black" stroke-width="0.5"/>
<path d="M84.012 163.269L100 154.039L115.988 163.269V181.731L100 190.961L84.012 181.731V163.269Z" fill="#00FF85" stroke="black" stroke-width="0.5"/>
<path d="M84.0625 163.125L100.082 172.992" stroke="black" stroke-width="0.5"/>
<path d="M99.9181 172.992L115.937 163.125" stroke="black" stroke-width="0.5"/>
<path d="M100 191.042L100 172.813" stroke="black" stroke-width="0.5"/>
<path d="M84.012 210.144L100 200.914L115.988 210.144V228.606L100 237.836L84.012 228.606V210.144Z" fill="white" stroke="black" stroke-width="0.5"/>
<path d="M84.0625 210L100.082 219.867" stroke="black" stroke-width="0.5"/>
<path d="M99.9181 219.867L115.937 210" stroke="black" stroke-width="0.5"/>
<path d="M100 237.917L100 219.688" stroke="black" stroke-width="0.5"/>
<path d="M2.76202 163.269L18.75 154.039L34.738 163.269V181.731L18.75 190.961L2.76202 181.731V163.269Z" fill="white" stroke="black" stroke-width="0.5"/>
<path d="M2.8125 163.125L18.8319 172.992" stroke="black" stroke-width="0.5"/>
<path d="M18.6681 172.992L34.6875 163.125" stroke="black" stroke-width="0.5"/>
<path d="M18.75 191.042L18.75 172.813" stroke="black" stroke-width="0.5"/>
<path d="M43.387 186.394L59.375 177.164L75.363 186.394V204.856L59.375 214.086L43.387 204.856V186.394Z" fill="#00FF85" stroke="black" stroke-width="0.5"/>
<path d="M43.4375 186.25L59.4569 196.117" stroke="black" stroke-width="0.5"/>
<path d="M59.2931 196.117L75.3125 186.25" stroke="black" stroke-width="0.5"/>
<path d="M59.375 214.167L59.375 195.938" stroke="black" stroke-width="0.5"/>
<path d="M165.262 163.269L181.25 154.039L197.238 163.269V181.731L181.25 190.961L165.262 181.731V163.269Z" fill="white" stroke="black" stroke-width="0.5"/>
<path d="M165.312 163.125L181.332 172.992" stroke="black" stroke-width="0.5"/>
<path d="M181.168 172.992L197.187 163.125" stroke="black" stroke-width="0.5"/>
<path d="M181.25 191.042L181.25 172.813" stroke="black" stroke-width="0.5"/>
<path d="M124.637 186.394L140.625 177.164L156.613 186.394V204.856L140.625 214.086L124.637 204.856V186.394Z" fill="#00FF85" stroke="black" stroke-width="0.5"/>
<path d="M124.688 186.25L140.707 196.117" stroke="black" stroke-width="0.5"/>
<path d="M140.543 196.117L156.563 186.25" stroke="black" stroke-width="0.5"/>
<path d="M140.625 214.167L140.625 195.938" stroke="black" stroke-width="0.5"/>
<path d="M84.012 117.019L100 107.789L115.988 117.019V135.481L100 144.711L84.012 135.481V117.019Z" fill="#00FF85" stroke="black" stroke-width="0.5"/>
<path d="M84.0625 116.875L100.082 126.742" stroke="black" stroke-width="0.5"/>
<path d="M99.9181 126.742L115.937 116.875" stroke="black" stroke-width="0.5"/>
<path d="M100 144.792L100 126.563" stroke="black" stroke-width="0.5"/>
<path d="M43.387 93.2693L59.375 84.0387L75.363 93.2693V111.731L59.375 120.961L43.387 111.731V93.2693Z" fill="white" stroke="black" stroke-width="0.5"/>
<path d="M43.4375 93.125L59.4569 102.992" stroke="black" stroke-width="0.5"/>
<path d="M59.2931 102.992L75.3125 93.1251" stroke="black" stroke-width="0.5"/>
<path d="M59.375 121.042L59.375 102.813" stroke="black" stroke-width="0.5"/>
<path d="M124.637 93.2693L140.625 84.0387L156.613 93.2693V111.731L140.625 120.961L124.637 111.731V93.2693Z" fill="white" stroke="black" stroke-width="0.5"/>
<path d="M124.688 93.125L140.707 102.992" stroke="black" stroke-width="0.5"/>
<path d="M140.543 102.992L156.563 93.1251" stroke="black" stroke-width="0.5"/>
<path d="M140.625 121.042L140.625 102.813" stroke="black" stroke-width="0.5"/>
<path d="M2.76202 116.394L18.75 107.164L34.738 116.394V134.856L18.75 144.086L2.76202 134.856V116.394Z" fill="#00FF85" stroke="black" stroke-width="0.5"/>
<path d="M2.8125 116.25L18.8319 126.117" stroke="black" stroke-width="0.5"/>
<path d="M18.6681 126.117L34.6875 116.25" stroke="black" stroke-width="0.5"/>
<path d="M18.75 144.167L18.75 125.938" stroke="black" stroke-width="0.5"/>
<path d="M43.387 139.519L59.375 130.289L75.363 139.519V157.981L59.375 167.211L43.387 157.981V139.519Z" fill="white" stroke="black" stroke-width="0.5"/>
<path d="M43.4375 139.375L59.4569 149.242" stroke="black" stroke-width="0.5"/>
<path d="M59.2931 149.242L75.3125 139.375" stroke="black" stroke-width="0.5"/>
<path d="M59.375 167.292L59.375 149.063" stroke="black" stroke-width="0.5"/>
<path d="M290.513 242V105.636H321.23V128.808H322.828C325.669 120.995 330.374 114.899 336.944 110.519C343.513 106.08 351.356 103.861 360.47 103.861C369.703 103.861 377.486 106.11 383.819 110.608C390.211 115.047 394.709 121.113 397.313 128.808H398.734C401.752 121.232 406.842 115.195 414.004 110.697C421.224 106.139 429.777 103.861 439.661 103.861C452.208 103.861 462.447 107.826 470.378 115.757C478.309 123.688 482.274 135.259 482.274 150.469V242H450.048V155.441C450.048 146.978 447.799 140.793 443.3 136.886C438.802 132.921 433.298 130.938 426.788 130.938C419.034 130.938 412.968 133.365 408.588 138.218C404.268 143.012 402.107 149.256 402.107 156.95V242H370.591V154.109C370.591 147.066 368.46 141.444 364.199 137.241C359.997 133.039 354.492 130.938 347.686 130.938C343.07 130.938 338.867 132.122 335.08 134.489C331.292 136.798 328.273 140.082 326.024 144.344C323.775 148.546 322.651 153.458 322.651 159.081V242H290.513ZM574.36 244.663C561.043 244.663 549.502 241.734 539.736 235.874C529.97 230.015 522.395 221.818 517.009 211.283C511.682 200.748 509.019 188.437 509.019 174.351C509.019 160.265 511.682 147.924 517.009 137.33C522.395 126.736 529.97 118.509 539.736 112.65C549.502 106.79 561.043 103.861 574.36 103.861C587.676 103.861 599.218 106.79 608.983 112.65C618.749 118.509 626.295 126.736 631.622 137.33C637.008 147.924 639.7 160.265 639.7 174.351C639.7 188.437 637.008 200.748 631.622 211.283C626.295 221.818 618.749 230.015 608.983 235.874C599.218 241.734 587.676 244.663 574.36 244.663ZM574.537 218.918C581.758 218.918 587.795 216.935 592.648 212.969C597.501 208.945 601.111 203.559 603.479 196.812C605.905 190.065 607.119 182.548 607.119 174.262C607.119 165.917 605.905 158.371 603.479 151.624C601.111 144.817 597.501 139.402 592.648 135.377C587.795 131.353 581.758 129.34 574.537 129.34C567.139 129.34 560.984 131.353 556.071 135.377C551.218 139.402 547.578 144.817 545.151 151.624C542.784 158.371 541.6 165.917 541.6 174.262C541.6 182.548 542.784 190.065 545.151 196.812C547.578 203.559 551.218 208.945 556.071 212.969C560.984 216.935 567.139 218.918 574.537 218.918ZM666.978 242V105.636H698.139V128.364H699.559C702.045 120.492 706.306 114.425 712.343 110.164C718.44 105.844 725.394 103.683 733.206 103.683C734.982 103.683 736.965 103.772 739.154 103.95C741.404 104.068 743.268 104.275 744.748 104.571V134.134C743.386 133.661 741.226 133.246 738.267 132.891C735.367 132.477 732.555 132.27 729.833 132.27C723.973 132.27 718.706 133.542 714.03 136.087C709.414 138.573 705.774 142.036 703.11 146.474C700.447 150.913 699.115 156.033 699.115 161.833V242H666.978ZM829.531 242V60.1818H861.669V128.186H863C864.658 124.872 866.995 121.35 870.014 117.621C873.032 113.834 877.116 110.608 882.265 107.945C887.414 105.222 893.984 103.861 901.974 103.861C912.509 103.861 922.008 106.554 930.472 111.94C938.995 117.266 945.742 125.168 950.713 135.643C955.744 146.06 958.26 158.844 958.26 173.996C958.26 188.97 955.803 201.695 950.891 212.17C945.979 222.646 939.291 230.636 930.827 236.141C922.364 241.645 912.775 244.397 902.063 244.397C894.25 244.397 887.77 243.095 882.62 240.491C877.471 237.887 873.328 234.75 870.191 231.08C867.114 227.352 864.717 223.83 863 220.516H861.136V242H829.531ZM861.047 173.818C861.047 182.637 862.29 190.361 864.776 196.989C867.321 203.618 870.961 208.797 875.696 212.526C880.49 216.195 886.29 218.03 893.096 218.03C900.199 218.03 906.147 216.136 910.941 212.348C915.735 208.501 919.345 203.263 921.772 196.634C924.257 189.946 925.5 182.341 925.5 173.818C925.5 165.355 924.287 157.838 921.86 151.268C919.434 144.699 915.824 139.55 911.029 135.821C906.235 132.092 900.258 130.228 893.096 130.228C886.231 130.228 880.401 132.033 875.607 135.643C870.813 139.254 867.173 144.314 864.687 150.825C862.261 157.335 861.047 165 861.047 173.818ZM1072.5 184.649V105.636H1104.63V242H1073.47V217.763H1072.05C1068.97 225.398 1063.91 231.643 1056.87 236.496C1049.89 241.349 1041.27 243.776 1031.04 243.776C1022.1 243.776 1014.2 241.793 1007.33 237.827C1000.53 233.803 995.199 227.973 991.352 220.338C987.505 212.644 985.581 203.352 985.581 192.462V105.636H1017.72V187.49C1017.72 196.131 1020.09 202.997 1024.82 208.087C1029.56 213.177 1035.77 215.722 1043.46 215.722C1048.2 215.722 1052.79 214.567 1057.23 212.259C1061.66 209.951 1065.3 206.518 1068.15 201.961C1071.05 197.344 1072.5 191.574 1072.5 184.649ZM1137.68 242V105.636H1169.82V242H1137.68ZM1153.84 86.2827C1148.75 86.2827 1144.37 84.5959 1140.7 81.2223C1137.03 77.7895 1135.19 73.6761 1135.19 68.8821C1135.19 64.0289 1137.03 59.9155 1140.7 56.5419C1144.37 53.1091 1148.75 51.3928 1153.84 51.3928C1158.99 51.3928 1163.37 53.1091 1166.98 56.5419C1170.65 59.9155 1172.48 64.0289 1172.48 68.8821C1172.48 73.6761 1170.65 77.7895 1166.98 81.2223C1163.37 84.5959 1158.99 86.2827 1153.84 86.2827ZM1235 60.1818V242H1202.87V60.1818H1235ZM1318.66 244.397C1307.94 244.397 1298.35 241.645 1289.89 236.141C1281.43 230.636 1274.74 222.646 1269.83 212.17C1264.92 201.695 1262.46 188.97 1262.46 173.996C1262.46 158.844 1264.94 146.06 1269.92 135.643C1274.95 125.168 1281.72 117.266 1290.25 111.94C1298.77 106.554 1308.27 103.861 1318.74 103.861C1326.73 103.861 1333.3 105.222 1338.45 107.945C1343.6 110.608 1347.69 113.834 1350.7 117.621C1353.72 121.35 1356.06 124.872 1357.72 128.186H1359.05V60.1818H1391.28V242H1359.67V220.516H1357.72C1356.06 223.83 1353.66 227.352 1350.53 231.08C1347.39 234.75 1343.25 237.887 1338.1 240.491C1332.95 243.095 1326.47 244.397 1318.66 244.397ZM1327.62 218.03C1334.43 218.03 1340.23 216.195 1345.02 212.526C1349.82 208.797 1353.46 203.618 1355.94 196.989C1358.43 190.361 1359.67 182.637 1359.67 173.818C1359.67 165 1358.43 157.335 1355.94 150.825C1353.52 144.314 1349.91 139.254 1345.11 135.643C1340.38 132.033 1334.55 130.228 1327.62 130.228C1320.46 130.228 1314.48 132.092 1309.69 135.821C1304.89 139.55 1301.28 144.699 1298.86 151.268C1296.43 157.838 1295.22 165.355 1295.22 173.818C1295.22 182.341 1296.43 189.946 1298.86 196.634C1301.34 203.263 1304.98 208.501 1309.78 212.348C1314.63 216.136 1320.58 218.03 1327.62 218.03ZM1485.89 244.663C1472.22 244.663 1460.41 241.822 1450.47 236.141C1440.59 230.4 1432.98 222.291 1427.65 211.815C1422.33 201.28 1419.66 188.881 1419.66 174.617C1419.66 160.59 1422.33 148.28 1427.65 137.685C1433.04 127.032 1440.56 118.746 1450.2 112.827C1459.85 106.85 1471.18 103.861 1484.21 103.861C1492.61 103.861 1500.54 105.222 1508 107.945C1515.51 110.608 1522.14 114.751 1527.88 120.374C1533.68 125.996 1538.24 133.158 1541.56 141.858C1544.87 150.499 1546.53 160.797 1546.53 172.753V182.607H1434.76V160.945H1515.72C1515.66 154.79 1514.33 149.315 1511.73 144.521C1509.12 139.668 1505.48 135.851 1500.81 133.069C1496.19 130.287 1490.8 128.896 1484.65 128.896C1478.08 128.896 1472.31 130.494 1467.34 133.69C1462.37 136.827 1458.49 140.97 1455.71 146.119C1452.98 151.209 1451.59 156.802 1451.53 162.898V181.808C1451.53 189.739 1452.98 196.545 1455.88 202.227C1458.78 207.85 1462.84 212.17 1468.05 215.189C1473.26 218.148 1479.35 219.628 1486.34 219.628C1491.01 219.628 1495.24 218.977 1499.03 217.675C1502.82 216.313 1506.1 214.331 1508.89 211.727C1511.67 209.122 1513.77 205.897 1515.19 202.05L1545.2 205.423C1543.3 213.354 1539.69 220.279 1534.36 226.197C1529.1 232.057 1522.35 236.614 1514.12 239.869C1505.9 243.065 1496.49 244.663 1485.89 244.663ZM1573.72 242V105.636H1604.88V128.364H1606.3C1608.78 120.492 1613.04 114.425 1619.08 110.164C1625.18 105.844 1632.13 103.683 1639.94 103.683C1641.72 103.683 1643.7 103.772 1645.89 103.95C1648.14 104.068 1650.01 104.275 1651.49 104.571V134.134C1650.12 133.661 1647.96 133.246 1645 132.891C1642.1 132.477 1639.29 132.27 1636.57 132.27C1630.71 132.27 1625.44 133.542 1620.77 136.087C1616.15 138.573 1612.51 142.036 1609.85 146.474C1607.19 150.913 1605.85 156.033 1605.85 161.833V242H1573.72ZM1780.61 141.68L1751.32 144.876C1750.49 141.917 1749.04 139.135 1746.97 136.531C1744.95 133.927 1742.23 131.826 1738.8 130.228C1735.37 128.63 1731.16 127.831 1726.19 127.831C1719.5 127.831 1713.88 129.281 1709.32 132.181C1704.83 135.081 1702.61 138.839 1702.67 143.456C1702.61 147.421 1704.06 150.647 1707.02 153.133C1710.04 155.619 1715.01 157.661 1721.93 159.259L1745.19 164.23C1758.09 167.012 1767.68 171.421 1773.96 177.458C1780.29 183.495 1783.48 191.396 1783.54 201.162C1783.48 209.744 1780.97 217.32 1776 223.889C1771.09 230.4 1764.25 235.49 1755.49 239.159C1746.73 242.829 1736.67 244.663 1725.31 244.663C1708.61 244.663 1695.18 241.171 1685 234.188C1674.82 227.144 1668.75 217.349 1666.8 204.802L1698.14 201.783C1699.56 207.939 1702.58 212.585 1707.19 215.722C1711.81 218.858 1717.82 220.427 1725.22 220.427C1732.85 220.427 1738.98 218.858 1743.59 215.722C1748.27 212.585 1750.61 208.708 1750.61 204.092C1750.61 200.185 1749.1 196.96 1746.08 194.415C1743.12 191.87 1738.5 189.917 1732.23 188.555L1708.97 183.673C1695.89 180.95 1686.21 176.363 1679.94 169.912C1673.67 163.402 1670.56 155.175 1670.62 145.232C1670.56 136.827 1672.84 129.547 1677.45 123.392C1682.13 117.178 1688.61 112.384 1696.9 109.01C1705.24 105.577 1714.86 103.861 1725.75 103.861C1741.73 103.861 1754.31 107.264 1763.48 114.07C1772.71 120.877 1778.42 130.08 1780.61 141.68Z" fill="white"/>
</svg>
