<svg width="4591" height="850" viewBox="0 0 4591 850" fill="none" xmlns="http://www.w3.org/2000/svg">
<path d="M316.452 35.535L377.5 0.288675L438.548 35.535V106.028L377.5 141.274L316.452 106.028V35.535Z" fill="#00FF85" stroke="black" stroke-width="0.5"/>
<path d="M317.336 35.3906L377.809 72.6383" stroke="black" stroke-width="0.5"/>
<path d="M377.191 72.6383L437.664 35.3906" stroke="black" stroke-width="0.5"/>
<path d="M377.5 140.779L377.5 71.9609" stroke="black" stroke-width="0.5"/>
<path d="M623.17 212.488L684.219 177.242L745.267 212.488V282.981L684.219 318.227L623.17 282.981V212.488Z" fill="#00FF85" stroke="black" stroke-width="0.5"/>
<path d="M624.054 212.344L684.528 249.591" stroke="black" stroke-width="0.5"/>
<path d="M683.91 249.591L744.383 212.344" stroke="black" stroke-width="0.5"/>
<path d="M684.219 317.732L684.219 248.914" stroke="black" stroke-width="0.5"/>
<path d="M469.811 299.785L530.86 264.539L591.908 299.785V370.278L530.86 405.524L469.811 370.278V299.785Z" fill="black" stroke="white" stroke-width="0.5"/>
<path d="M470.695 299.641L531.168 336.888" stroke="white" stroke-width="0.5"/>
<path d="M530.551 336.888L591.024 299.641" stroke="white" stroke-width="0.5"/>
<path d="M530.859 405.029L530.859 336.211" stroke="white" stroke-width="0.5"/>
<path d="M623.17 566.394L684.219 531.148L745.267 566.394V636.887L684.219 672.133L623.17 636.887V566.394Z" fill="#00FF85" stroke="black" stroke-width="0.5"/>
<path d="M624.054 566.25L684.528 603.498" stroke="black" stroke-width="0.5"/>
<path d="M683.91 603.498L744.383 566.25" stroke="black" stroke-width="0.5"/>
<path d="M684.219 671.638L684.219 602.82" stroke="black" stroke-width="0.5"/>
<path d="M469.811 653.691L530.86 618.445L591.908 653.691V724.184L530.86 759.43L469.811 724.184V653.691Z" fill="black" stroke="white" stroke-width="0.5"/>
<path d="M470.695 653.547L531.168 690.795" stroke="white" stroke-width="0.5"/>
<path d="M530.551 690.795L591.024 653.547" stroke="white" stroke-width="0.5"/>
<path d="M530.859 758.935L530.859 690.117" stroke="white" stroke-width="0.5"/>
<path d="M316.452 743.348L377.5 708.101L438.548 743.348V813.84L377.5 849.086L316.452 813.84V743.348Z" fill="#00FF85" stroke="black" stroke-width="0.5"/>
<path d="M317.336 743.203L377.809 780.451" stroke="black" stroke-width="0.5"/>
<path d="M377.191 780.451L437.664 743.203" stroke="black" stroke-width="0.5"/>
<path d="M377.5 848.592L377.5 779.774" stroke="black" stroke-width="0.5"/>
<path d="M9.73289 568.754L70.7812 533.507L131.83 568.754V639.246L70.7812 674.493L9.73289 639.246V568.754Z" fill="#00FF85" stroke="black" stroke-width="0.5"/>
<path d="M10.6171 568.609L71.0903 605.857" stroke="black" stroke-width="0.5"/>
<path d="M70.4724 605.857L130.946 568.609" stroke="black" stroke-width="0.5"/>
<path d="M70.7815 673.998L70.7815 605.18" stroke="black" stroke-width="0.5"/>
<path d="M163.092 656.051L224.141 620.804L285.189 656.051V726.543L224.141 761.789L163.092 726.543V656.051Z" fill="black" stroke="white" stroke-width="0.5"/>
<path d="M163.977 655.906L224.45 693.154" stroke="white" stroke-width="0.5"/>
<path d="M223.832 693.154L284.305 655.906" stroke="white" stroke-width="0.5"/>
<path d="M224.141 761.295L224.141 692.477" stroke="white" stroke-width="0.5"/>
<path d="M316.452 389.441L377.5 354.195L438.548 389.441V459.934L377.5 495.18L316.452 459.934V389.441Z" fill="#00FF85" stroke="black" stroke-width="0.5"/>
<path d="M317.336 389.297L377.809 426.545" stroke="black" stroke-width="0.5"/>
<path d="M377.191 426.545L437.664 389.297" stroke="black" stroke-width="0.5"/>
<path d="M377.5 494.685L377.5 425.867" stroke="black" stroke-width="0.5"/>
<path d="M316.452 566.394L377.5 531.148L438.548 566.394V636.887L377.5 672.133L316.452 636.887V566.394Z" fill="black" stroke="white" stroke-width="0.5"/>
<path d="M317.336 566.25L377.809 603.498" stroke="white" stroke-width="0.5"/>
<path d="M377.191 603.498L437.664 566.25" stroke="white" stroke-width="0.5"/>
<path d="M377.5 671.638L377.5 602.82" stroke="white" stroke-width="0.5"/>
<path d="M9.73289 389.441L70.7812 354.195L131.83 389.441V459.934L70.7812 495.18L9.73289 459.934V389.441Z" fill="black" stroke="white" stroke-width="0.5"/>
<path d="M10.6171 389.297L71.0903 426.545" stroke="white" stroke-width="0.5"/>
<path d="M70.4724 426.545L130.946 389.297" stroke="white" stroke-width="0.5"/>
<path d="M70.7815 494.685L70.7815 425.867" stroke="white" stroke-width="0.5"/>
<path d="M163.092 476.738L224.141 441.492L285.189 476.738V547.231L224.141 582.477L163.092 547.231V476.738Z" fill="#00FF85" stroke="black" stroke-width="0.5"/>
<path d="M163.977 476.594L224.45 513.841" stroke="black" stroke-width="0.5"/>
<path d="M223.832 513.841L284.305 476.594" stroke="black" stroke-width="0.5"/>
<path d="M224.141 581.982L224.141 513.164" stroke="black" stroke-width="0.5"/>
<path d="M623.17 389.441L684.219 354.195L745.267 389.441V459.934L684.219 495.18L623.17 459.934V389.441Z" fill="black" stroke="white" stroke-width="0.5"/>
<path d="M624.054 389.297L684.528 426.545" stroke="white" stroke-width="0.5"/>
<path d="M683.91 426.545L744.383 389.297" stroke="white" stroke-width="0.5"/>
<path d="M684.219 494.685L684.219 425.867" stroke="white" stroke-width="0.5"/>
<path d="M469.811 476.738L530.86 441.492L591.908 476.738V547.231L530.86 582.477L469.811 547.231V476.738Z" fill="#00FF85" stroke="black" stroke-width="0.5"/>
<path d="M470.695 476.594L531.168 513.841" stroke="black" stroke-width="0.5"/>
<path d="M530.551 513.841L591.024 476.594" stroke="black" stroke-width="0.5"/>
<path d="M530.859 581.982L530.859 513.164" stroke="black" stroke-width="0.5"/>
<path d="M316.452 214.847L377.5 179.601L438.548 214.847V285.34L377.5 320.586L316.452 285.34V214.847Z" fill="#00FF85" stroke="black" stroke-width="0.5"/>
<path d="M317.336 214.703L377.809 251.951" stroke="black" stroke-width="0.5"/>
<path d="M377.191 251.951L437.664 214.703" stroke="black" stroke-width="0.5"/>
<path d="M377.5 320.092L377.5 251.273" stroke="black" stroke-width="0.5"/>
<path d="M163.092 125.191L224.141 89.945L285.189 125.191V195.684L224.141 230.93L163.092 195.684V125.191Z" fill="black" stroke="white" stroke-width="0.5"/>
<path d="M163.977 125.047L224.45 162.295" stroke="white" stroke-width="0.5"/>
<path d="M223.832 162.294L284.305 125.047" stroke="white" stroke-width="0.5"/>
<path d="M224.141 230.435L224.141 161.617" stroke="white" stroke-width="0.5"/>
<path d="M469.811 125.191L530.86 89.945L591.908 125.191V195.684L530.86 230.93L469.811 195.684V125.191Z" fill="black" stroke="white" stroke-width="0.5"/>
<path d="M470.695 125.047L531.168 162.295" stroke="white" stroke-width="0.5"/>
<path d="M530.551 162.294L591.024 125.047" stroke="white" stroke-width="0.5"/>
<path d="M530.859 230.435L530.859 161.617" stroke="white" stroke-width="0.5"/>
<path d="M9.73289 212.488L70.7812 177.242L131.83 212.488V282.981L70.7812 318.227L9.73289 282.981V212.488Z" fill="#00FF85" stroke="black" stroke-width="0.5"/>
<path d="M10.6171 212.344L71.0903 249.591" stroke="black" stroke-width="0.5"/>
<path d="M70.4724 249.591L130.946 212.344" stroke="black" stroke-width="0.5"/>
<path d="M70.7815 317.732L70.7815 248.914" stroke="black" stroke-width="0.5"/>
<path d="M163.092 299.785L224.141 264.539L285.189 299.785V370.278L224.141 405.524L163.092 370.278V299.785Z" fill="black" stroke="white" stroke-width="0.5"/>
<path d="M163.977 299.641L224.45 336.888" stroke="white" stroke-width="0.5"/>
<path d="M223.832 336.888L284.305 299.641" stroke="white" stroke-width="0.5"/>
<path d="M224.141 405.029L224.141 336.211" stroke="white" stroke-width="0.5"/>
<path d="M898.631 582V254.727H972.352V310.338H976.188C983.006 291.588 994.298 276.957 1010.07 266.446C1025.83 255.793 1044.65 250.466 1066.53 250.466C1088.69 250.466 1107.37 255.864 1122.57 266.659C1137.91 277.312 1148.7 291.872 1154.95 310.338H1158.36C1165.61 292.156 1177.82 277.668 1195.01 266.872C1212.34 255.935 1232.86 250.466 1256.59 250.466C1286.7 250.466 1311.27 259.983 1330.31 279.017C1349.34 298.051 1358.86 325.821 1358.86 362.327V582H1281.51V374.259C1281.51 353.946 1276.12 339.102 1265.32 329.727C1254.53 320.21 1241.32 315.452 1225.69 315.452C1207.08 315.452 1192.52 321.276 1182.01 332.923C1171.64 344.429 1166.46 359.415 1166.46 377.881V582H1090.82V371.062C1090.82 354.159 1085.7 340.665 1075.48 330.58C1065.39 320.494 1052.18 315.452 1035.85 315.452C1024.77 315.452 1014.68 318.293 1005.59 323.974C996.5 329.514 989.256 337.398 983.858 347.625C978.46 357.71 975.761 369.5 975.761 382.994V582H898.631ZM1579.86 588.392C1547.9 588.392 1520.2 581.361 1496.77 567.298C1473.33 553.236 1455.15 533.562 1442.22 508.278C1429.44 482.994 1423.04 453.449 1423.04 419.642C1423.04 385.835 1429.44 356.219 1442.22 330.793C1455.15 305.366 1473.33 285.622 1496.77 271.56C1520.2 257.497 1547.9 250.466 1579.86 250.466C1611.82 250.466 1639.52 257.497 1662.96 271.56C1686.4 285.622 1704.51 305.366 1717.29 330.793C1730.22 356.219 1736.68 385.835 1736.68 419.642C1736.68 453.449 1730.22 482.994 1717.29 508.278C1704.51 533.562 1686.4 553.236 1662.96 567.298C1639.52 581.361 1611.82 588.392 1579.86 588.392ZM1580.29 526.602C1597.62 526.602 1612.11 521.844 1623.75 512.327C1635.4 502.668 1644.07 489.741 1649.75 473.548C1655.57 457.355 1658.49 439.315 1658.49 419.429C1658.49 399.401 1655.57 381.29 1649.75 365.097C1644.07 348.761 1635.4 335.764 1623.75 326.105C1612.11 316.446 1597.62 311.616 1580.29 311.616C1562.53 311.616 1547.76 316.446 1535.97 326.105C1524.32 335.764 1515.59 348.761 1509.76 365.097C1504.08 381.29 1501.24 399.401 1501.24 419.429C1501.24 439.315 1504.08 457.355 1509.76 473.548C1515.59 489.741 1524.32 502.668 1535.97 512.327C1547.76 521.844 1562.53 526.602 1580.29 526.602ZM1802.15 582V254.727H1876.93V309.273H1880.34C1886.31 290.381 1896.54 275.821 1911.02 265.594C1925.65 255.224 1942.35 250.04 1961.1 250.04C1965.36 250.04 1970.12 250.253 1975.37 250.679C1980.77 250.963 1985.24 251.46 1988.79 252.17V323.122C1985.53 321.986 1980.34 320.991 1973.24 320.139C1966.28 319.145 1959.53 318.648 1953 318.648C1938.94 318.648 1926.29 321.702 1915.07 327.81C1903.99 333.776 1895.26 342.085 1888.87 352.739C1882.47 363.392 1879.28 375.679 1879.28 389.599V582H1802.15ZM2192.27 582V145.636H2269.4V308.847H2272.6C2276.58 300.892 2282.19 292.44 2289.43 283.491C2296.68 274.401 2306.48 266.659 2318.84 260.267C2331.19 253.733 2346.96 250.466 2366.14 250.466C2391.42 250.466 2414.22 256.929 2434.53 269.855C2454.99 282.639 2471.18 301.602 2483.11 326.744C2495.19 351.744 2501.22 382.426 2501.22 418.79C2501.22 454.727 2495.33 485.267 2483.54 510.409C2471.75 535.551 2455.7 554.727 2435.38 567.938C2415.07 581.148 2392.06 587.753 2366.35 587.753C2347.6 587.753 2332.05 584.628 2319.69 578.378C2307.33 572.128 2297.39 564.599 2289.86 555.793C2282.47 546.844 2276.72 538.392 2272.6 530.438H2268.13V582H2192.27ZM2267.91 418.364C2267.91 439.528 2270.9 458.065 2276.86 473.974C2282.97 489.884 2291.71 502.312 2303.07 511.261C2314.58 520.068 2328.5 524.472 2344.83 524.472C2361.88 524.472 2376.15 519.926 2387.66 510.835C2399.16 501.602 2407.83 489.031 2413.65 473.122C2419.62 457.071 2422.6 438.818 2422.6 418.364C2422.6 398.051 2419.69 380.011 2413.87 364.244C2408.04 348.477 2399.38 336.119 2387.87 327.17C2376.37 318.222 2362.02 313.747 2344.83 313.747C2328.35 313.747 2314.36 318.08 2302.86 326.744C2291.35 335.409 2282.62 347.554 2276.65 363.179C2270.83 378.804 2267.91 397.199 2267.91 418.364ZM2775.39 444.358V254.727H2852.52V582H2777.73V523.832H2774.32C2766.94 542.156 2754.79 557.142 2737.89 568.79C2721.13 580.437 2700.46 586.261 2675.89 586.261C2654.44 586.261 2635.47 581.503 2619 571.986C2602.66 562.327 2589.88 548.335 2580.64 530.011C2571.41 511.545 2566.79 489.244 2566.79 463.108V254.727H2643.93V451.176C2643.93 471.915 2649.61 488.392 2660.97 500.608C2672.33 512.824 2687.25 518.932 2705.72 518.932C2717.08 518.932 2728.09 516.162 2738.74 510.622C2749.39 505.082 2758.13 496.844 2764.95 485.906C2771.91 474.827 2775.39 460.977 2775.39 444.358ZM2931.83 582V254.727H3008.96V582H2931.83ZM2970.61 208.278C2958.4 208.278 2947.88 204.23 2939.08 196.134C2930.27 187.895 2925.87 178.023 2925.87 166.517C2925.87 154.869 2930.27 144.997 2939.08 136.901C2947.88 128.662 2958.4 124.543 2970.61 124.543C2982.97 124.543 2993.48 128.662 3002.15 136.901C3010.95 144.997 3015.36 154.869 3015.36 166.517C3015.36 178.023 3010.95 187.895 3002.15 196.134C2993.48 204.23 2982.97 208.278 2970.61 208.278ZM3165.41 145.636V582H3088.28V145.636H3165.41ZM3366.17 587.753C3340.46 587.753 3317.45 581.148 3297.14 567.938C3276.83 554.727 3260.78 535.551 3248.99 510.409C3237.2 485.267 3231.3 454.727 3231.3 418.79C3231.3 382.426 3237.27 351.744 3249.2 326.744C3261.27 301.602 3277.54 282.639 3297.99 269.855C3318.45 256.929 3341.24 250.466 3366.39 250.466C3385.56 250.466 3401.33 253.733 3413.69 260.267C3426.05 266.659 3435.85 274.401 3443.09 283.491C3450.34 292.44 3455.95 300.892 3459.92 308.847H3463.12V145.636H3540.46V582H3464.61V530.438H3459.92C3455.95 538.392 3450.19 546.844 3442.66 555.793C3435.14 564.599 3425.19 572.128 3412.84 578.378C3400.48 584.628 3384.92 587.753 3366.17 587.753ZM3387.69 524.472C3404.03 524.472 3417.95 520.068 3429.45 511.261C3440.96 502.312 3449.7 489.884 3455.66 473.974C3461.63 458.065 3464.61 439.528 3464.61 418.364C3464.61 397.199 3461.63 378.804 3455.66 363.179C3449.84 347.554 3441.17 335.409 3429.67 326.744C3418.3 318.08 3404.31 313.747 3387.69 313.747C3370.51 313.747 3356.16 318.222 3344.65 327.17C3333.15 336.119 3324.48 348.477 3318.66 364.244C3312.84 380.011 3309.92 398.051 3309.92 418.364C3309.92 438.818 3312.84 457.071 3318.66 473.122C3324.63 489.031 3333.36 501.602 3344.87 510.835C3356.51 519.926 3370.79 524.472 3387.69 524.472ZM3767.54 588.392C3734.73 588.392 3706.39 581.574 3682.53 567.938C3658.8 554.159 3640.55 534.699 3627.77 509.557C3614.98 484.273 3608.59 454.514 3608.59 420.281C3608.59 386.616 3614.98 357.071 3627.77 331.645C3640.69 306.077 3658.73 286.19 3681.89 271.986C3705.04 257.639 3732.24 250.466 3763.49 250.466C3783.66 250.466 3802.7 253.733 3820.59 260.267C3838.63 266.659 3854.54 276.602 3868.32 290.097C3882.24 303.591 3893.18 320.778 3901.13 341.659C3909.09 362.398 3913.07 387.114 3913.07 415.807V439.457H3644.81V387.469H3839.13C3838.99 372.696 3835.79 359.557 3829.54 348.051C3823.29 336.403 3814.56 327.241 3803.34 320.565C3792.26 313.889 3779.33 310.551 3764.56 310.551C3748.79 310.551 3734.94 314.386 3723.01 322.057C3711.08 329.585 3701.77 339.528 3695.1 351.886C3688.56 364.102 3685.23 377.526 3685.08 392.156V437.54C3685.08 456.574 3688.56 472.909 3695.52 486.545C3702.48 500.04 3712.21 510.409 3724.71 517.653C3737.21 524.756 3751.84 528.307 3768.61 528.307C3779.83 528.307 3789.98 526.744 3799.07 523.619C3808.17 520.352 3816.05 515.594 3822.73 509.344C3829.4 503.094 3834.44 495.352 3837.85 486.119L3909.87 494.216C3905.32 513.25 3896.66 529.869 3883.88 544.074C3871.23 558.136 3855.04 569.074 3835.3 576.886C3815.55 584.557 3792.97 588.392 3767.54 588.392ZM3978.32 582V254.727H4053.11V309.273H4056.51C4062.48 290.381 4072.71 275.821 4087.2 265.594C4101.83 255.224 4118.52 250.04 4137.27 250.04C4141.53 250.04 4146.29 250.253 4151.54 250.679C4156.94 250.963 4161.41 251.46 4164.97 252.17V323.122C4161.7 321.986 4156.51 320.991 4149.41 320.139C4142.45 319.145 4135.7 318.648 4129.17 318.648C4115.11 318.648 4102.47 321.702 4091.24 327.81C4080.16 333.776 4071.43 342.085 4065.04 352.739C4058.64 363.392 4055.45 375.679 4055.45 389.599V582H3978.32ZM4474.87 341.233L4404.56 348.903C4402.57 341.801 4399.09 335.125 4394.12 328.875C4389.29 322.625 4382.76 317.582 4374.52 313.747C4366.28 309.912 4356.19 307.994 4344.26 307.994C4328.21 307.994 4314.72 311.474 4303.78 318.435C4292.98 325.395 4287.66 334.415 4287.8 345.494C4287.66 355.011 4291.14 362.753 4298.24 368.719C4305.48 374.685 4317.42 379.585 4334.04 383.42L4389.86 395.352C4420.83 402.028 4443.84 412.611 4458.89 427.099C4474.09 441.588 4481.76 460.551 4481.9 483.989C4481.76 504.585 4475.73 522.767 4463.79 538.534C4452 554.159 4435.6 566.375 4414.58 575.182C4393.55 583.989 4369.4 588.392 4342.13 588.392C4302.08 588.392 4269.83 580.011 4245.4 563.25C4220.97 546.347 4206.41 522.838 4201.72 492.724L4276.93 485.48C4280.34 500.253 4287.59 511.403 4298.67 518.932C4309.75 526.46 4324.16 530.224 4341.92 530.224C4360.24 530.224 4374.94 526.46 4386.02 518.932C4397.25 511.403 4402.86 502.099 4402.86 491.02C4402.86 481.645 4399.23 473.903 4391.99 467.795C4384.89 461.687 4373.81 457 4358.75 453.733L4302.93 442.014C4271.54 435.48 4248.31 424.472 4233.25 408.989C4218.2 393.364 4210.74 373.619 4210.88 349.756C4210.74 329.585 4216.21 312.114 4227.29 297.341C4238.51 282.426 4254.06 270.92 4273.95 262.824C4293.98 254.585 4317.06 250.466 4343.2 250.466C4381.55 250.466 4411.73 258.634 4433.75 274.969C4455.91 291.304 4469.62 313.392 4474.87 341.233Z" fill="black"/>
</svg>
