<svg width="778" height="876" viewBox="0 0 778 876" fill="none" xmlns="http://www.w3.org/2000/svg">
<path d="M326.084 36.6131L389 0.288675L451.916 36.6131V109.262L389 145.586L326.084 109.262V36.6131Z" fill="#00FF85" stroke="black" stroke-width="0.5"/>
<path d="M327.003 36.4687L389.319 74.8511" stroke="black" stroke-width="0.5"/>
<path d="M388.681 74.8511L450.997 36.4688" stroke="black" stroke-width="0.5"/>
<path d="M389 145.068L389 74.1531" stroke="black" stroke-width="0.5"/>
<path d="M642.147 218.957L705.062 182.632L767.978 218.957V291.606L705.062 327.93L642.147 291.606V218.957Z" fill="#00FF85" stroke="black" stroke-width="0.5"/>
<path d="M643.066 218.812L705.381 257.195" stroke="black" stroke-width="0.5"/>
<path d="M704.744 257.195L767.059 218.812" stroke="black" stroke-width="0.5"/>
<path d="M705.062 327.411L705.063 256.497" stroke="black" stroke-width="0.5"/>
<path d="M484.115 308.913L547.031 272.589L609.947 308.913V381.562L547.031 417.886L484.115 381.562V308.913Z" fill="black" stroke="white" stroke-width="0.5"/>
<path d="M485.034 308.769L547.35 347.151" stroke="white" stroke-width="0.5"/>
<path d="M546.713 347.151L609.028 308.769" stroke="white" stroke-width="0.5"/>
<path d="M547.031 417.368L547.031 346.453" stroke="white" stroke-width="0.5"/>
<path d="M642.147 583.644L705.062 547.32L767.978 583.644V656.293L705.062 692.618L642.147 656.293V583.644Z" fill="#00FF85" stroke="black" stroke-width="0.5"/>
<path d="M643.066 583.5L705.381 621.882" stroke="black" stroke-width="0.5"/>
<path d="M704.744 621.882L767.059 583.5" stroke="black" stroke-width="0.5"/>
<path d="M705.062 692.099L705.063 621.184" stroke="black" stroke-width="0.5"/>
<path d="M484.115 673.601L547.031 637.276L609.947 673.601V746.249L547.031 782.574L484.115 746.249V673.601Z" fill="black" stroke="white" stroke-width="0.5"/>
<path d="M485.034 673.456L547.35 711.839" stroke="white" stroke-width="0.5"/>
<path d="M546.713 711.839L609.028 673.456" stroke="white" stroke-width="0.5"/>
<path d="M547.031 782.055L547.031 711.141" stroke="white" stroke-width="0.5"/>
<path d="M326.084 765.988L389 729.664L451.916 765.988V838.637L389 874.961L326.084 838.637V765.988Z" fill="#00FF85" stroke="black" stroke-width="0.5"/>
<path d="M327.003 765.844L389.319 804.226" stroke="black" stroke-width="0.5"/>
<path d="M388.681 804.226L450.997 765.844" stroke="black" stroke-width="0.5"/>
<path d="M389 874.443L389 803.528" stroke="black" stroke-width="0.5"/>
<path d="M10.0218 586.076L72.9375 549.751L135.853 586.076V658.724L72.9375 695.049L10.0218 658.724V586.076Z" fill="#00FF85" stroke="black" stroke-width="0.5"/>
<path d="M10.9406 585.931L73.2561 624.314" stroke="black" stroke-width="0.5"/>
<path d="M72.6189 624.314L134.934 585.931" stroke="black" stroke-width="0.5"/>
<path d="M72.9375 694.53L72.9375 623.616" stroke="black" stroke-width="0.5"/>
<path d="M168.053 676.032L230.969 639.707L293.884 676.032V748.681L230.969 785.005L168.053 748.681V676.032Z" fill="black" stroke="white" stroke-width="0.5"/>
<path d="M168.972 675.888L231.287 714.27" stroke="white" stroke-width="0.5"/>
<path d="M230.65 714.27L292.966 675.887" stroke="white" stroke-width="0.5"/>
<path d="M230.969 784.486L230.969 713.572" stroke="white" stroke-width="0.5"/>
<path d="M326.084 401.301L389 364.976L451.916 401.301V473.949L389 510.274L326.084 473.949V401.301Z" fill="#00FF85" stroke="black" stroke-width="0.5"/>
<path d="M327.003 401.156L389.319 439.539" stroke="black" stroke-width="0.5"/>
<path d="M388.681 439.539L450.997 401.156" stroke="black" stroke-width="0.5"/>
<path d="M389 509.755L389 438.841" stroke="black" stroke-width="0.5"/>
<path d="M326.084 583.644L389 547.32L451.916 583.644V656.293L389 692.618L326.084 656.293V583.644Z" fill="black" stroke="white" stroke-width="0.5"/>
<path d="M327.003 583.5L389.319 621.882" stroke="white" stroke-width="0.5"/>
<path d="M388.681 621.882L450.997 583.5" stroke="white" stroke-width="0.5"/>
<path d="M389 692.099L389 621.184" stroke="white" stroke-width="0.5"/>
<path d="M10.0218 401.301L72.9375 364.976L135.853 401.301V473.949L72.9375 510.274L10.0218 473.949V401.301Z" fill="black" stroke="white" stroke-width="0.5"/>
<path d="M10.9406 401.156L73.2561 439.539" stroke="white" stroke-width="0.5"/>
<path d="M72.6189 439.539L134.934 401.156" stroke="white" stroke-width="0.5"/>
<path d="M72.9375 509.755L72.9375 438.841" stroke="white" stroke-width="0.5"/>
<path d="M168.053 491.257L230.969 454.932L293.884 491.257V563.906L230.969 600.23L168.053 563.906V491.257Z" fill="#00FF85" stroke="black" stroke-width="0.5"/>
<path d="M168.972 491.113L231.287 529.495" stroke="black" stroke-width="0.5"/>
<path d="M230.65 529.495L292.966 491.112" stroke="black" stroke-width="0.5"/>
<path d="M230.969 599.711L230.969 528.797" stroke="black" stroke-width="0.5"/>
<path d="M642.147 401.301L705.062 364.976L767.978 401.301V473.949L705.062 510.274L642.147 473.949V401.301Z" fill="black" stroke="white" stroke-width="0.5"/>
<path d="M643.066 401.156L705.381 439.539" stroke="white" stroke-width="0.5"/>
<path d="M704.744 439.539L767.059 401.156" stroke="white" stroke-width="0.5"/>
<path d="M705.062 509.755L705.063 438.841" stroke="white" stroke-width="0.5"/>
<path d="M484.115 491.257L547.031 454.932L609.947 491.257V563.906L547.031 600.23L484.115 563.906V491.257Z" fill="#00FF85" stroke="black" stroke-width="0.5"/>
<path d="M485.034 491.113L547.35 529.495" stroke="black" stroke-width="0.5"/>
<path d="M546.713 529.495L609.028 491.112" stroke="black" stroke-width="0.5"/>
<path d="M547.031 599.711L547.031 528.797" stroke="black" stroke-width="0.5"/>
<path d="M326.084 221.388L389 185.064L451.916 221.388V294.037L389 330.361L326.084 294.037V221.388Z" fill="#00FF85" stroke="black" stroke-width="0.5"/>
<path d="M327.003 221.244L389.319 259.626" stroke="black" stroke-width="0.5"/>
<path d="M388.681 259.626L450.997 221.244" stroke="black" stroke-width="0.5"/>
<path d="M389 329.843L389 258.928" stroke="black" stroke-width="0.5"/>
<path d="M168.053 129.001L230.969 92.6762L293.884 129.001V201.649L230.969 237.974L168.053 201.649V129.001Z" fill="black" stroke="white" stroke-width="0.5"/>
<path d="M168.972 128.856L231.287 167.239" stroke="white" stroke-width="0.5"/>
<path d="M230.65 167.239L292.966 128.856" stroke="white" stroke-width="0.5"/>
<path d="M230.969 237.455L230.969 166.541" stroke="white" stroke-width="0.5"/>
<path d="M484.115 129.001L547.031 92.6762L609.947 129.001V201.649L547.031 237.974L484.115 201.649V129.001Z" fill="black" stroke="white" stroke-width="0.5"/>
<path d="M485.034 128.856L547.35 167.239" stroke="white" stroke-width="0.5"/>
<path d="M546.713 167.239L609.028 128.856" stroke="white" stroke-width="0.5"/>
<path d="M547.031 237.455L547.031 166.541" stroke="white" stroke-width="0.5"/>
<path d="M10.0218 218.957L72.9375 182.632L135.853 218.957V291.606L72.9375 327.93L10.0218 291.606V218.957Z" fill="#00FF85" stroke="black" stroke-width="0.5"/>
<path d="M10.9406 218.812L73.2561 257.195" stroke="black" stroke-width="0.5"/>
<path d="M72.6189 257.195L134.934 218.812" stroke="black" stroke-width="0.5"/>
<path d="M72.9375 327.411L72.9375 256.497" stroke="black" stroke-width="0.5"/>
<path d="M168.053 308.913L230.969 272.589L293.884 308.913V381.562L230.969 417.886L168.053 381.562V308.913Z" fill="black" stroke="white" stroke-width="0.5"/>
<path d="M168.972 308.769L231.287 347.151" stroke="white" stroke-width="0.5"/>
<path d="M230.65 347.151L292.966 308.769" stroke="white" stroke-width="0.5"/>
<path d="M230.969 417.368L230.969 346.453" stroke="white" stroke-width="0.5"/>
</svg>
