<svg width="744" height="200" viewBox="0 0 744 200" fill="none" xmlns="http://www.w3.org/2000/svg">
<path d="M318.88 50C324.858 50 330.402 51.491 335.512 54.4729C340.623 57.3586 344.624 61.3505 347.517 66.4486C350.506 71.5467 352 77.0776 352 83.0414C352 89.0052 350.506 94.5362 347.517 99.6343C344.624 104.636 340.623 108.628 335.512 111.61C330.402 114.592 324.858 116.083 318.88 116.083H300.946V151H282V50H318.88ZM318.88 98.0471C323.026 98.0471 326.545 96.6043 329.438 93.7186C332.427 90.7367 333.921 87.1776 333.921 83.0414C333.921 78.9052 332.427 75.3462 329.438 72.3643C326.545 69.3824 323.026 67.8914 318.88 67.8914H300.946V98.0471H318.88Z" fill="#0F0F0F"/>
<path d="M415.056 75.8994H433V151H415.056V141.795C411.679 144.717 407.965 147.006 403.913 148.662C399.957 150.221 395.761 151 391.323 151C383.991 151 377.575 149.344 372.076 146.032C366.577 142.72 362.332 138.142 359.341 132.298C356.447 126.454 355 119.879 355 112.573C355 105.268 356.447 98.6926 359.341 92.8482C362.332 87.0038 366.577 82.4257 372.076 79.1139C377.575 75.7046 383.991 74 391.323 74C395.761 74 399.957 74.828 403.913 76.4839C407.965 78.0424 411.679 80.2827 415.056 83.2049V75.8994ZM393.638 133.613C397.594 133.613 401.163 132.736 404.347 130.983C407.627 129.132 410.184 126.6 412.017 123.385C413.946 120.171 414.911 116.518 414.911 112.427C414.911 106.29 412.837 101.274 408.688 97.3776C404.636 93.4813 399.62 91.5332 393.638 91.5332C387.56 91.5332 382.544 93.53 378.588 97.5237C374.729 101.42 372.8 106.436 372.8 112.573C372.8 118.71 374.729 123.775 378.588 127.769C382.544 131.665 387.56 133.613 393.638 133.613Z" fill="#0F0F0F"/>
<path d="M473.613 125.519C473.613 128.801 474.387 131.069 475.934 132.324C477.48 133.579 479.946 134.206 483.329 134.206C485.36 134.206 487.583 134.061 490 133.772V150.276C485.456 150.759 481.686 151 478.689 151C470.955 151 465.154 149.263 461.287 145.788C457.517 142.217 455.631 135.847 455.631 126.678V92.694L442 92.694V75.9973L455.631 75.9973V60.0806L473.613 54V75.9973L489.71 75.9973V92.1639L473.613 92.1639V125.519Z" fill="#0F0F0F"/>
<path d="M515.272 125.519C515.272 128.801 516.061 131.069 517.64 132.324C519.22 133.579 521.736 134.206 525.19 134.206C527.263 134.206 529.533 134.061 532 133.772V150.276C527.362 150.759 523.513 151 520.453 151C512.558 151 506.636 149.263 502.689 145.788C498.84 142.217 496.915 135.847 496.915 126.678L496.915 92.1639H483L483 75.9973H496.915V60.0806L515.272 54V75.9973H531.704L531.704 92.1639H515.272L515.272 125.519Z" fill="#0F0F0F"/>
<path d="M579.375 74C586.379 74 592.654 75.7567 598.198 79.27C603.84 82.6857 608.218 87.3213 611.331 93.1768C614.444 99.0323 616 105.522 616 112.646C616 114.989 615.805 117.136 615.416 119.087H559.093C560.553 124.26 563.13 128.31 566.827 131.238C570.523 134.068 575.241 135.483 580.981 135.483C584.482 135.483 587.839 134.702 591.049 133.141C594.356 131.579 596.837 129.579 598.49 127.139L612.352 135.337C608.947 140.411 604.521 144.315 599.074 147.048C593.724 149.683 587.547 151 580.543 151C572.761 151 565.854 149.341 559.823 146.023C553.792 142.705 549.123 138.118 545.815 132.262C542.605 126.407 541 119.819 541 112.5C541 105.278 542.605 98.7395 545.815 92.884C549.123 87.0285 553.695 82.4417 559.531 79.1236C565.368 75.7079 571.982 74 579.375 74ZM599.074 104.888C598.296 100.203 596.107 96.5437 592.508 93.9088C589.006 91.1762 584.58 89.8099 579.23 89.8099C575.533 89.8099 572.128 90.493 569.016 91.8593C566 93.2256 563.568 95.0798 561.72 97.422C559.872 99.7643 558.899 102.253 558.802 104.888H599.074Z" fill="#0F0F0F"/>
<path d="M669 78L667.697 94.7471C667.118 94.5562 666.104 94.4608 664.657 94.4608C658.672 94.4608 653.701 96.1784 649.744 99.6137C645.883 103.049 643.953 107.725 643.953 113.641V151H626V79.4314H643.953V91.4549C645.594 87.6379 648.393 84.4412 652.35 81.8647C656.308 79.2882 661.085 78 666.683 78H669Z" fill="#0F0F0F"/>
<path d="M715.366 75C719.565 75 723.813 75.9383 728.108 77.8148C732.499 79.5926 736.221 82.8519 739.275 87.5926C742.425 92.3333 744 98.7037 744 106.704V151H726.247V106.704C726.247 101.173 724.72 97.2222 721.665 94.8519C718.706 92.3827 715.222 91.1481 711.214 91.1481C707.205 91.1481 703.769 92.6296 700.905 95.5926C698.137 98.4568 696.753 103.099 696.753 109.519V151H679V76.9259H696.753V83.1481C699.33 80.679 702.194 78.7037 705.344 77.2222C708.493 75.7407 711.834 75 715.366 75Z" fill="#0F0F0F"/>
<path d="M0 97.9355C0 94.6218 2.85286 92.1824 5.81656 90.7001C7.18707 90.0147 8.35513 89.044 9.32076 87.788C11.6101 84.8694 12.7547 81.106 12.7547 76.4977V36.4055C12.7547 29.1859 14.4717 22.8111 17.9057 17.2811C21.3396 11.7511 25.9182 7.52688 31.6415 4.60829C37.5283 1.5361 43.7421 0 50.283 0H57C61.4183 0 65 3.58172 65 8V10.894C65 15.3123 61.4183 18.894 57 18.894H50.283C45.8679 18.894 42.1069 20.5069 39 23.7327C36.0566 26.9585 34.5849 31.106 34.5849 36.1751V79.2627C34.5849 85.2439 33.4465 90.0368 31.1697 93.6415C29.2351 96.7044 29.3278 103.152 31.2547 106.22C33.4749 109.754 34.5849 114.516 34.5849 120.507V163.594C34.5849 168.51 36.0566 172.657 39 176.037C42.1069 179.263 45.8679 180.876 50.283 180.876H57C61.4183 180.876 65 184.457 65 188.876V192C65 196.418 61.4183 200 57 200H50.283C43.7421 200 37.5283 198.464 31.6415 195.392C25.9182 192.473 21.3396 188.249 17.9057 182.719C14.4717 177.189 12.7547 170.814 12.7547 163.594V123.502C12.7547 118.894 11.6101 115.207 9.32076 112.442C8.35091 111.111 7.17685 110.083 5.79858 109.359C2.86503 107.818 0 105.378 0 102.065V97.9355Z" fill="#0577FF"/>
<path d="M238 102.065C238 105.378 235.147 107.818 232.183 109.3C230.813 109.985 229.645 110.956 228.679 112.212C226.39 115.131 225.245 118.894 225.245 123.502V163.594C225.245 170.814 223.528 177.189 220.094 182.719C216.66 188.249 212.082 192.473 206.358 195.392C200.472 198.464 194.258 200 187.717 200H181C176.582 200 173 196.418 173 192V189.106C173 184.688 176.582 181.106 181 181.106H187.717C192.132 181.106 195.893 179.493 199 176.267C201.943 173.041 203.415 168.894 203.415 163.825V120.737C203.415 114.756 204.554 109.963 206.83 106.358C208.765 103.296 208.672 96.8481 206.745 93.7804C204.525 90.2461 203.415 85.4837 203.415 79.4931V36.4055C203.415 31.49 201.943 27.3426 199 23.9632C195.893 20.7373 192.132 19.1244 187.717 19.1244H181C176.582 19.1244 173 15.5427 173 11.1244V8C173 3.58173 176.582 0 181 0H187.717C194.258 0 200.472 1.53609 206.358 4.60829C212.082 7.52687 216.66 11.7511 220.094 17.2811C223.528 22.8111 225.245 29.1859 225.245 36.4055V76.4977C225.245 81.106 226.39 84.7926 228.679 87.5576C229.649 88.8891 230.823 89.9169 232.201 90.641C235.135 92.1821 238 94.6218 238 97.9355V102.065Z" fill="#0577FF"/>
<path fill-rule="evenodd" clip-rule="evenodd" d="M102.693 103.099C102.693 115.44 92.688 125.445 80.3464 125.445C68.0048 125.445 58 115.44 58 103.099C58 90.7573 68.0048 80.7524 80.3464 80.7524C92.688 80.7524 102.693 90.7573 102.693 103.099ZM183.79 103.099C183.79 115.44 173.785 125.445 161.444 125.445C156.925 125.445 152.719 124.104 149.203 121.797C144.498 118.711 139.473 115.5 133.847 115.5H129.635C122.657 115.5 117 109.843 117 102.864C117 95.8861 122.657 90.229 129.635 90.229H134.239C139.841 90.229 144.871 87.0992 149.623 84.1316C153.052 81.99 157.103 80.7524 161.444 80.7524C173.785 80.7524 183.79 90.7573 183.79 103.099Z" fill="#0577FF"/>
</svg>
