<svg width="73" height="10" viewBox="0 0 73 10" fill="none" xmlns="http://www.w3.org/2000/svg">
<path d="M4.04635 8.11943L6.4082 0.178253H8.63636L5.2852 9.82175H3.89483L4.04635 8.11943ZM2.23708 0.178253L4.64349 8.15508L4.75936 9.82175H3.36898L0 0.178253H2.23708Z" fill="#052E4A"/>
<path d="M14.2552 10C13.5422 10 12.8975 9.88414 12.3211 9.65241C11.7507 9.41474 11.2635 9.08497 10.8595 8.6631C10.4614 8.24124 10.1554 7.7451 9.94146 7.17469C9.72756 6.60428 9.62061 5.9893 9.62061 5.32977V4.97326C9.62061 4.21866 9.73053 3.53535 9.95037 2.92335C10.1702 2.31135 10.4762 1.78847 10.8684 1.35472C11.2605 0.915033 11.724 0.579323 12.2588 0.347594C12.7935 0.115865 13.3728 0 13.9967 0C14.686 0 15.2891 0.115865 15.806 0.347594C16.3229 0.579323 16.7507 0.90612 17.0894 1.32799C17.434 1.74391 17.6895 2.24005 17.8559 2.8164C18.0282 3.39275 18.1144 4.02852 18.1144 4.72371V5.64171H10.6634V4.09982H15.9932V3.93048C15.9813 3.54427 15.904 3.18182 15.7614 2.84314C15.6248 2.50446 15.4138 2.23113 15.1286 2.02317C14.8434 1.81521 14.4631 1.71123 13.9878 1.71123C13.6313 1.71123 13.3134 1.78847 13.0342 1.94296C12.7608 2.0915 12.5321 2.30838 12.3479 2.59358C12.1637 2.87879 12.0211 3.22341 11.9201 3.62745C11.825 4.02555 11.7775 4.47415 11.7775 4.97326V5.32977C11.7775 5.75163 11.8339 6.14379 11.9468 6.50624C12.0656 6.86274 12.238 7.17469 12.4637 7.44207C12.6895 7.70945 12.9629 7.92038 13.2837 8.07487C13.6046 8.22341 13.97 8.29768 14.38 8.29768C14.8969 8.29768 15.3574 8.1937 15.7614 7.98574C16.1655 7.77778 16.516 7.48366 16.8131 7.10339L17.945 8.19964C17.7371 8.50267 17.4667 8.79382 17.134 9.07308C16.8012 9.34641 16.3942 9.56922 15.9129 9.74153C15.4376 9.91384 14.885 10 14.2552 10Z" fill="#052E4A"/>
<path d="M22.0843 2.23708V9.82175H19.9364V0.178253H21.9596L22.0843 2.23708ZM21.7011 4.64349L21.0059 4.63458C21.0119 3.95128 21.1069 3.32442 21.2911 2.75401C21.4813 2.1836 21.7427 1.6934 22.0754 1.28342C22.4141 0.87344 22.8182 0.558527 23.2876 0.338681C23.757 0.112894 24.2798 0 24.8562 0C25.3196 0 25.7385 0.0653598 26.1129 0.196079C26.4931 0.320856 26.817 0.525847 27.0843 0.811052C27.3577 1.09626 27.5656 1.46762 27.7082 1.92513C27.8508 2.37671 27.9221 2.93226 27.9221 3.5918V9.82175H25.7653V3.58289C25.7653 3.11943 25.6969 2.75401 25.5603 2.48663C25.4296 2.21331 25.2365 2.0202 24.981 1.90731C24.7314 1.78847 24.4195 1.72906 24.0451 1.72906C23.6767 1.72906 23.347 1.8063 23.0558 1.96078C22.7647 2.11527 22.5181 2.3262 22.3161 2.59358C22.12 2.86096 21.9685 3.16993 21.8615 3.5205C21.7546 3.87106 21.7011 4.2454 21.7011 4.64349Z" fill="#052E4A"/>
<path d="M32.5784 0.178253V9.82175H30.4215V0.178253H32.5784Z" fill="#052E4A"/>
<path d="M39.035 8.28877C39.3856 8.28877 39.7005 8.22044 39.9797 8.08378C40.265 7.94118 40.4937 7.7451 40.666 7.49554C40.8443 7.24599 40.9423 6.95781 40.9601 6.63102H42.9833C42.9714 7.2549 42.7872 7.82234 42.4307 8.33333C42.0742 8.84433 41.6019 9.25134 41.0136 9.55437C40.4254 9.85146 39.7748 10 39.0617 10C38.325 10 37.6833 9.87522 37.1366 9.62567C36.59 9.37017 36.1354 9.01961 35.773 8.57397C35.4105 8.12834 35.1372 7.61438 34.953 7.03209C34.7748 6.44979 34.6856 5.82591 34.6856 5.16043V4.84848C34.6856 4.18301 34.7748 3.55912 34.953 2.97683C35.1372 2.38859 35.4105 1.87166 35.773 1.42602C36.1354 0.980392 36.59 0.632799 37.1366 0.383244C37.6833 0.127748 38.322 0 39.0528 0C39.8253 0 40.5026 0.154486 41.0849 0.463458C41.6672 0.766488 42.1247 1.19133 42.4575 1.73797C42.7961 2.27867 42.9714 2.9085 42.9833 3.62745H40.9601C40.9423 3.27094 40.8532 2.95009 40.6928 2.66488C40.5383 2.37374 40.3184 2.14201 40.0332 1.9697C39.754 1.79739 39.4183 1.71123 39.0261 1.71123C38.5923 1.71123 38.2329 1.80036 37.9477 1.97861C37.6625 2.15092 37.4396 2.38859 37.2792 2.69162C37.1188 2.98871 37.0029 3.32442 36.9316 3.69875C36.8663 4.06714 36.8336 4.45039 36.8336 4.84848V5.16043C36.8336 5.55853 36.8663 5.94474 36.9316 6.31907C36.997 6.6934 37.1099 7.02911 37.2703 7.3262C37.4367 7.61735 37.6625 7.85205 37.9477 8.0303C38.2329 8.20261 38.5953 8.28877 39.035 8.28877Z" fill="#052E4A"/>
<path d="M49.0478 10C48.3348 10 47.6901 9.88414 47.1137 9.65241C46.5433 9.41474 46.0561 9.08497 45.6521 8.6631C45.254 8.24124 44.948 7.7451 44.734 7.17469C44.5201 6.60428 44.4132 5.9893 44.4132 5.32977V4.97326C44.4132 4.21866 44.5231 3.53535 44.743 2.92335C44.9628 2.31135 45.2688 1.78847 45.661 1.35472C46.0531 0.915033 46.5166 0.579323 47.0513 0.347594C47.5861 0.115865 48.1654 0 48.7893 0C49.4786 0 50.0816 0.115865 50.5986 0.347594C51.1155 0.579323 51.5433 0.90612 51.882 1.32799C52.2266 1.74391 52.4821 2.24005 52.6485 2.8164C52.8208 3.39275 52.907 4.02852 52.907 4.72371V5.64171H45.456V4.09982H50.7857V3.93048C50.7739 3.54427 50.6966 3.18182 50.554 2.84314C50.4173 2.50446 50.2064 2.23113 49.9212 2.02317C49.636 1.81521 49.2557 1.71123 48.7804 1.71123C48.4239 1.71123 48.106 1.78847 47.8267 1.94296C47.5534 2.0915 47.3247 2.30838 47.1405 2.59358C46.9563 2.87879 46.8137 3.22341 46.7127 3.62745C46.6176 4.02555 46.5701 4.47415 46.5701 4.97326V5.32977C46.5701 5.75163 46.6265 6.14379 46.7394 6.50624C46.8582 6.86274 47.0305 7.17469 47.2563 7.44207C47.4821 7.70945 47.7554 7.92038 48.0763 8.07487C48.3971 8.22341 48.7626 8.29768 49.1725 8.29768C49.6895 8.29768 50.15 8.1937 50.554 7.98574C50.9581 7.77778 51.3086 7.48366 51.6057 7.10339L52.7376 8.19964C52.5296 8.50267 52.2593 8.79382 51.9266 9.07308C51.5938 9.34641 51.1868 9.56922 50.7055 9.74153C50.2302 9.91384 49.6776 10 49.0478 10Z" fill="#052E4A"/>
<path d="M54.8359 8.75223C54.8359 8.41949 54.9488 8.14023 55.1746 7.91444C55.4004 7.68271 55.7064 7.56685 56.0926 7.56685C56.4848 7.56685 56.7908 7.68271 57.0106 7.91444C57.2364 8.14023 57.3493 8.41949 57.3493 8.75223C57.3493 9.08497 57.2364 9.36423 57.0106 9.59002C56.7908 9.8158 56.4848 9.9287 56.0926 9.9287C55.7064 9.9287 55.4004 9.8158 55.1746 9.59002C54.9488 9.36423 54.8359 9.08497 54.8359 8.75223Z" fill="#052E4A"/>
<path d="M65.428 7.8877V3.28877C65.428 2.94415 65.3656 2.64706 65.2409 2.3975C65.1161 2.14795 64.9259 1.95484 64.6704 1.81818C64.4209 1.68152 64.106 1.61319 63.7257 1.61319C63.3751 1.61319 63.0721 1.67261 62.8166 1.79144C62.5611 1.91028 62.3621 2.07071 62.2195 2.27273C62.0769 2.47475 62.0056 2.70351 62.0056 2.959H59.8665C59.8665 2.57873 59.9586 2.21034 60.1428 1.85383C60.327 1.49733 60.5944 1.17944 60.945 0.900178C61.2955 0.620915 61.7144 0.40107 62.2016 0.240642C62.6889 0.0802141 63.2355 0 63.8416 0C64.5665 0 65.2082 0.121806 65.7667 0.365419C66.3312 0.609031 66.7738 0.977421 67.0947 1.47059C67.4215 1.95781 67.5849 2.56982 67.5849 3.3066V7.59358C67.5849 8.03327 67.6146 8.4284 67.674 8.77897C67.7394 9.12359 67.8315 9.42365 67.9503 9.67914V9.82175H65.7489C65.6479 9.59002 65.5677 9.2959 65.5082 8.93939C65.4548 8.57695 65.428 8.22638 65.428 7.8877ZM65.74 3.95722L65.7578 5.2852H64.2159C63.8178 5.2852 63.4672 5.32383 63.1642 5.40107C62.8612 5.47237 62.6086 5.57932 62.4066 5.72193C62.2046 5.86453 62.0531 6.03684 61.9521 6.23886C61.8511 6.44088 61.8006 6.66964 61.8006 6.92513C61.8006 7.18063 61.86 7.41533 61.9788 7.62923C62.0977 7.8372 62.27 8.00059 62.4958 8.11943C62.7275 8.23826 63.0067 8.29768 63.3335 8.29768C63.7732 8.29768 64.1565 8.20856 64.4833 8.0303C64.816 7.84611 65.0775 7.62329 65.2676 7.36185C65.4577 7.09447 65.5587 6.84195 65.5706 6.60428L66.2658 7.55793C66.1945 7.80154 66.0727 8.06298 65.9004 8.34225C65.7281 8.62151 65.5023 8.88889 65.223 9.14439C64.9497 9.39394 64.6199 9.59893 64.2337 9.75936C63.8534 9.91979 63.4138 10 62.9146 10C62.2848 10 61.7233 9.87522 61.2302 9.62567C60.737 9.37017 60.3508 9.02852 60.0715 8.60071C59.7922 8.16696 59.6526 7.67677 59.6526 7.13012C59.6526 6.61913 59.7477 6.16756 59.9378 5.7754C60.1339 5.3773 60.4191 5.04456 60.7934 4.77718C61.1737 4.5098 61.6372 4.30778 62.1838 4.17112C62.7305 4.02852 63.3543 3.95722 64.0555 3.95722H65.74Z" fill="#052E4A"/>
<path d="M72.2946 0.178253V9.82175H70.1378V0.178253H72.2946Z" fill="#052E4A"/>
</svg>
